<?xml version="1.0" encoding="UTF-8" standalone="no"?>
<!DOCTYPE svg PUBLIC "-//W3C//DTD SVG 1.1//EN"
 "http://www.w3.org/Graphics/SVG/1.1/DTD/svg11.dtd">
<!-- Generated by graphviz version 2.26.3 (20100126.1600)
 -->
<!-- Title: G_component_4 Pages: 1 -->
<svg width="247pt" height="137pt"
 viewBox="0.00 0.00 246.71 137.31" xmlns="http://www.w3.org/2000/svg" xmlns:xlink="http://www.w3.org/1999/xlink">
<g id="graph1" class="graph" transform="scale(1 1) rotate(0) translate(4 133.315)">
<title>G_component_4</title>
<polygon fill="#808080" stroke="#808080" points="-4,5 -4,-133.315 243.709,-133.315 243.709,5 -4,5"/>
<!-- P_10592 -->
<g id="node1" class="node"><title>P_10592</title>
<ellipse fill="#000000" stroke="#000000" cx="184.227" cy="-72.1194" rx="3" ry="3.5"/>
</g>
<!-- G_509 -->
<g id="node2" class="node"><title>G_509</title>
<polygon fill="#00ff00" stroke="#00ff00" points="170.704,-59.0092 167.704,-55.5092 170.704,-52.0092 173.704,-55.5092 170.704,-59.0092"/>
</g>
<!-- P_10592&#45;&gt;G_509 -->
<g id="edge2" class="edge"><title>P_10592&#45;&gt;G_509</title>
<path fill="none" stroke="black" d="M182.114,-69.5241C179.38,-66.1663 174.682,-60.3952 172.255,-57.4146"/>
</g>
<!-- G_816 -->
<g id="node4" class="node"><title>G_816</title>
<polygon fill="#00ff00" stroke="#00ff00" points="171.462,-100.906 168.462,-97.4058 171.462,-93.9058 174.462,-97.4058 171.462,-100.906"/>
</g>
<!-- P_10592&#45;&gt;G_816 -->
<g id="edge4" class="edge"><title>P_10592&#45;&gt;G_816</title>
<path fill="none" stroke="black" d="M182.662,-75.22C180.105,-80.2842 175.084,-90.2316 172.733,-94.8888"/>
</g>
<!-- G_2884 -->
<g id="node6" class="node"><title>G_2884</title>
<polygon fill="#00ff00" stroke="#00ff00" points="232.381,-90.9462 229.381,-87.4462 232.381,-83.9462 235.381,-87.4462 232.381,-90.9462"/>
</g>
<!-- P_10592&#45;&gt;G_2884 -->
<g id="edge6" class="edge"><title>P_10592&#45;&gt;G_2884</title>
<path fill="none" stroke="black" d="M187.387,-73.1251C196.258,-75.9488 221.293,-83.917 229.637,-86.5727"/>
</g>
<!-- G_3152 -->
<g id="node8" class="node"><title>G_3152</title>
<polygon fill="#00ff00" stroke="#00ff00" points="198.612,-89.4241 195.612,-85.9241 198.612,-82.4241 201.612,-85.9241 198.612,-89.4241"/>
</g>
<!-- P_10592&#45;&gt;G_3152 -->
<g id="edge8" class="edge"><title>P_10592&#45;&gt;G_3152</title>
<path fill="none" stroke="black" d="M186.733,-74.524C189.566,-77.2432 194.119,-81.6118 196.687,-84.0767"/>
</g>
<!-- G_4327 -->
<g id="node10" class="node"><title>G_4327</title>
<polygon fill="#00ff00" stroke="#00ff00" points="145.579,-43.8997 142.579,-40.3997 145.579,-36.8997 148.579,-40.3997 145.579,-43.8997"/>
</g>
<!-- P_10592&#45;&gt;G_4327 -->
<g id="edge10" class="edge"><title>P_10592&#45;&gt;G_4327</title>
<path fill="none" stroke="black" d="M181.691,-70.0382C174.436,-64.0841 153.715,-47.0775 147.417,-41.9083"/>
</g>
<!-- G_4455 -->
<g id="node12" class="node"><title>G_4455</title>
<polygon fill="#00ff00" stroke="#00ff00" points="145.254,-62.9475 142.254,-59.4475 145.254,-55.9475 148.254,-59.4475 145.254,-62.9475"/>
</g>
<!-- P_10592&#45;&gt;G_4455 -->
<g id="edge12" class="edge"><title>P_10592&#45;&gt;G_4455</title>
<path fill="none" stroke="black" d="M181.169,-71.1251C173.704,-68.6979 154.66,-62.5059 147.781,-60.2692"/>
</g>
<!-- G_4456 -->
<g id="node14" class="node"><title>G_4456</title>
<polygon fill="#00ff00" stroke="#00ff00" points="147.802,-99.17 144.802,-95.67 147.802,-92.17 150.802,-95.67 147.802,-99.17"/>
</g>
<!-- P_10592&#45;&gt;G_4456 -->
<g id="edge14" class="edge"><title>P_10592&#45;&gt;G_4456</title>
<path fill="none" stroke="black" d="M181.369,-73.9674C174.258,-78.565 155.905,-90.4313 149.806,-94.3745"/>
</g>
<!-- G_4459 -->
<g id="node16" class="node"><title>G_4459</title>
<polygon fill="#00ff00" stroke="#00ff00" points="160.655,-113.396 157.655,-109.896 160.655,-106.396 163.655,-109.896 160.655,-113.396"/>
</g>
<!-- P_10592&#45;&gt;G_4459 -->
<g id="edge16" class="edge"><title>P_10592&#45;&gt;G_4459</title>
<path fill="none" stroke="black" d="M182.377,-75.0837C177.776,-82.4586 165.898,-101.493 161.951,-107.818"/>
</g>
<!-- G_4491 -->
<g id="node18" class="node"><title>G_4491</title>
<polygon fill="#00ff00" stroke="#00ff00" points="143.62,-85.7028 140.62,-82.2028 143.62,-78.7028 146.62,-82.2028 143.62,-85.7028"/>
</g>
<!-- P_10592&#45;&gt;G_4491 -->
<g id="edge18" class="edge"><title>P_10592&#45;&gt;G_4491</title>
<path fill="none" stroke="black" d="M181.041,-72.9107C173.263,-74.842 153.42,-79.7692 146.253,-81.5489"/>
</g>
<!-- G_5982 -->
<g id="node20" class="node"><title>G_5982</title>
<polygon fill="#00ff00" stroke="#00ff00" points="206.541,-66.3353 203.541,-62.8353 206.541,-59.3353 209.541,-62.8353 206.541,-66.3353"/>
</g>
<!-- P_10592&#45;&gt;G_5982 -->
<g id="edge20" class="edge"><title>P_10592&#45;&gt;G_5982</title>
<path fill="none" stroke="black" d="M187.33,-70.8285C191.832,-68.9551 200.083,-65.5225 204.148,-63.8311"/>
</g>
<!-- G_6552 -->
<g id="node22" class="node"><title>G_6552</title>
<polygon fill="#00ff00" stroke="#00ff00" points="191.597,-53.3509 188.597,-49.8509 191.597,-46.3509 194.597,-49.8509 191.597,-53.3509"/>
</g>
<!-- P_10592&#45;&gt;G_6552 -->
<g id="edge22" class="edge"><title>P_10592&#45;&gt;G_6552</title>
<path fill="none" stroke="black" d="M185.379,-68.64C186.868,-64.1384 189.429,-56.4014 190.751,-52.4054"/>
</g>
<!-- G_6553 -->
<g id="node24" class="node"><title>G_6553</title>
<polygon fill="#00ff00" stroke="#00ff00" points="217.555,-110.031 214.555,-106.531 217.555,-103.031 220.555,-106.531 217.555,-110.031"/>
</g>
<!-- P_10592&#45;&gt;G_6553 -->
<g id="edge24" class="edge"><title>P_10592&#45;&gt;G_6553</title>
<path fill="none" stroke="black" d="M186.842,-74.8196C193.349,-81.5374 210.141,-98.8759 215.721,-104.638"/>
</g>
<!-- G_6667 -->
<g id="node26" class="node"><title>G_6667</title>
<polygon fill="#00ff00" stroke="#00ff00" points="207.293,-46.3369 204.293,-42.8369 207.293,-39.3369 210.293,-42.8369 207.293,-46.3369"/>
</g>
<!-- P_10592&#45;&gt;G_6667 -->
<g id="edge26" class="edge"><title>P_10592&#45;&gt;G_6667</title>
<path fill="none" stroke="black" d="M186.356,-69.4171C190.995,-63.5272 201.918,-49.6613 205.851,-44.6686"/>
</g>
<!-- G_8490 -->
<g id="node28" class="node"><title>G_8490</title>
<polygon fill="#00ff00" stroke="#00ff00" points="177.879,-128.315 174.879,-124.815 177.879,-121.315 180.879,-124.815 177.879,-128.315"/>
</g>
<!-- P_10592&#45;&gt;G_8490 -->
<g id="edge28" class="edge"><title>P_10592&#45;&gt;G_8490</title>
<path fill="none" stroke="black" d="M183.771,-75.9092C182.588,-85.7262 179.438,-111.876 178.298,-121.337"/>
</g>
<!-- G_8492 -->
<g id="node30" class="node"><title>G_8492</title>
<polygon fill="#00ff00" stroke="#00ff00" points="171.148,-86.8652 168.148,-83.3652 171.148,-79.8652 174.148,-83.3652 171.148,-86.8652"/>
</g>
<!-- P_10592&#45;&gt;G_8492 -->
<g id="edge30" class="edge"><title>P_10592&#45;&gt;G_8492</title>
<path fill="none" stroke="black" d="M181.705,-74.2877C179.211,-76.4323 175.444,-79.6714 173.149,-81.6449"/>
</g>
<!-- G_241 -->
<g id="node32" class="node"><title>G_241</title>
<polygon fill="#ff0000" stroke="#ff0000" points="195.237,-33.6356 192.237,-30.1356 195.237,-26.6356 198.237,-30.1356 195.237,-33.6356"/>
</g>
<!-- P_10592&#45;&gt;G_241 -->
<g id="edge32" class="edge"><title>P_10592&#45;&gt;G_241</title>
<path fill="none" stroke="black" d="M185.166,-68.5399C187.288,-60.4494 192.423,-40.866 194.422,-33.2441"/>
</g>
<!-- G_595 -->
<g id="node34" class="node"><title>G_595</title>
<polygon fill="#ff0000" stroke="#ff0000" points="234.209,-63.8123 231.209,-60.3123 234.209,-56.8123 237.209,-60.3123 234.209,-63.8123"/>
</g>
<!-- P_10592&#45;&gt;G_595 -->
<g id="edge34" class="edge"><title>P_10592&#45;&gt;G_595</title>
<path fill="none" stroke="black" d="M187.204,-71.4162C196.115,-69.3112 222.503,-63.0777 231.31,-60.9971"/>
</g>
<!-- G_3731 -->
<g id="node36" class="node"><title>G_3731</title>
<polygon fill="#ff0000" stroke="#ff0000" points="156.713,-83.4305 153.713,-79.9305 156.713,-76.4305 159.713,-79.9305 156.713,-83.4305"/>
</g>
<!-- P_10592&#45;&gt;G_3731 -->
<g id="edge36" class="edge"><title>P_10592&#45;&gt;G_3731</title>
<path fill="none" stroke="black" d="M181.283,-72.9554C175.848,-74.4981 164.333,-77.7672 159.234,-79.2149"/>
</g>
<!-- G_6120 -->
<g id="node38" class="node"><title>G_6120</title>
<polygon fill="#ff0000" stroke="#ff0000" points="179.586,-33.1255 176.586,-29.6255 179.586,-26.1255 182.586,-29.6255 179.586,-33.1255"/>
</g>
<!-- P_10592&#45;&gt;G_6120 -->
<g id="edge38" class="edge"><title>P_10592&#45;&gt;G_6120</title>
<path fill="none" stroke="black" d="M183.831,-68.4964C182.937,-60.3076 180.772,-40.4863 179.93,-32.7717"/>
</g>
<!-- G_8369 -->
<g id="node40" class="node"><title>G_8369</title>
<polygon fill="#ff0000" stroke="#ff0000" points="160.997,-43.4138 157.997,-39.9138 160.997,-36.4138 163.997,-39.9138 160.997,-43.4138"/>
</g>
<!-- P_10592&#45;&gt;G_8369 -->
<g id="edge40" class="edge"><title>P_10592&#45;&gt;G_8369</title>
<path fill="none" stroke="black" d="M182.083,-69.1473C177.411,-62.6695 166.411,-47.4194 162.45,-41.9284"/>
</g>
<!-- P_46132 -->
<g id="node42" class="node"><title>P_46132</title>
<ellipse fill="#000000" stroke="#000000" cx="57.4264" cy="-70.5081" rx="3" ry="3.5"/>
</g>
<!-- G_430 -->
<g id="node43" class="node"><title>G_430</title>
<polygon fill="#00ff00" stroke="#00ff00" points="110.192,-43.316 107.192,-39.816 110.192,-36.316 113.192,-39.816 110.192,-43.316"/>
</g>
<!-- P_46132&#45;&gt;G_430 -->
<g id="edge42" class="edge"><title>P_46132&#45;&gt;G_430</title>
<path fill="none" stroke="black" d="M60.2633,-68.858C69.6821,-63.3794 99.7863,-45.8689 108.067,-41.0524"/>
</g>
<!-- G_888 -->
<g id="node45" class="node"><title>G_888</title>
<polygon fill="#00ff00" stroke="#00ff00" points="114.239,-55.8452 111.239,-52.3452 114.239,-48.8452 117.239,-52.3452 114.239,-55.8452"/>
</g>
<!-- P_46132&#45;&gt;G_888 -->
<g id="edge44" class="edge"><title>P_46132&#45;&gt;G_888</title>
<path fill="none" stroke="black" d="M60.4809,-69.5316C70.5298,-66.319 102.448,-56.115 111.702,-53.1565"/>
</g>
<!-- G_972 -->
<g id="node47" class="node"><title>G_972</title>
<polygon fill="#00ff00" stroke="#00ff00" points="29.5837,-89.0219 26.5837,-85.5219 29.5837,-82.0219 32.5837,-85.5219 29.5837,-89.0219"/>
</g>
<!-- P_46132&#45;&gt;G_972 -->
<g id="edge46" class="edge"><title>P_46132&#45;&gt;G_972</title>
<path fill="none" stroke="black" d="M54.4467,-72.1149C48.8353,-75.1408 36.8165,-81.6217 31.8268,-84.3123"/>
</g>
<!-- G_1329 -->
<g id="node49" class="node"><title>G_1329</title>
<polygon fill="#00ff00" stroke="#00ff00" points="4.80033,-78.68 1.80033,-75.18 4.80033,-71.68 7.80033,-75.18 4.80033,-78.68"/>
</g>
<!-- P_46132&#45;&gt;G_1329 -->
<g id="edge48" class="edge"><title>P_46132&#45;&gt;G_1329</title>
<path fill="none" stroke="black" d="M54.292,-70.7864C44.8213,-71.6271 16.6001,-74.1325 7.59489,-74.9319"/>
</g>
<!-- G_3025 -->
<g id="node51" class="node"><title>G_3025</title>
<polygon fill="#00ff00" stroke="#00ff00" points="43.9326,-41.3814 40.9326,-37.8814 43.9326,-34.3814 46.9326,-37.8814 43.9326,-41.3814"/>
</g>
<!-- P_46132&#45;&gt;G_3025 -->
<g id="edge50" class="edge"><title>P_46132&#45;&gt;G_3025</title>
<path fill="none" stroke="black" d="M56.0832,-67.2605C53.4167,-60.8132 47.5005,-46.5082 45.0397,-40.5583"/>
</g>
<!-- G_3657 -->
<g id="node53" class="node"><title>G_3657</title>
<polygon fill="#00ff00" stroke="#00ff00" points="25.7077,-47.4577 22.7077,-43.9577 25.7077,-40.4577 28.7077,-43.9577 25.7077,-47.4577"/>
</g>
<!-- P_46132&#45;&gt;G_3657 -->
<g id="edge52" class="edge"><title>P_46132&#45;&gt;G_3657</title>
<path fill="none" stroke="black" d="M54.9375,-68.4247C48.8621,-63.3393 33.363,-50.3656 27.7645,-45.6793"/>
</g>
<!-- G_3698 -->
<g id="node55" class="node"><title>G_3698</title>
<polygon fill="#00ff00" stroke="#00ff00" points="8.09385,-45.1168 5.09385,-41.6168 8.09385,-38.1168 11.0939,-41.6168 8.09385,-45.1168"/>
</g>
<!-- P_46132&#45;&gt;G_3698 -->
<g id="edge54" class="edge"><title>P_46132&#45;&gt;G_3698</title>
<path fill="none" stroke="black" d="M54.4881,-68.7874C45.5272,-63.5394 18.6591,-47.8043 10.4816,-43.0151"/>
</g>
<!-- G_4204 -->
<g id="node57" class="node"><title>G_4204</title>
<polygon fill="#00ff00" stroke="#00ff00" points="92.9381,-40.1159 89.9381,-36.6159 92.9381,-33.1159 95.9381,-36.6159 92.9381,-40.1159"/>
</g>
<!-- P_46132&#45;&gt;G_4204 -->
<g id="edge56" class="edge"><title>P_46132&#45;&gt;G_4204</title>
<path fill="none" stroke="black" d="M59.7564,-68.2844C66.4224,-61.9224 85.4621,-43.751 91.2492,-38.2278"/>
</g>
<!-- G_4891 -->
<g id="node59" class="node"><title>G_4891</title>
<polygon fill="#00ff00" stroke="#00ff00" points="4.5,-61.7042 1.5,-58.2042 4.5,-54.7042 7.5,-58.2042 4.5,-61.7042"/>
</g>
<!-- P_46132&#45;&gt;G_4891 -->
<g id="edge58" class="edge"><title>P_46132&#45;&gt;G_4891</title>
<path fill="none" stroke="black" d="M54.2741,-69.7753C44.6603,-67.5404 15.8349,-60.8393 7.06169,-58.7997"/>
</g>
<!-- G_4895 -->
<g id="node61" class="node"><title>G_4895</title>
<polygon fill="#00ff00" stroke="#00ff00" points="29.3534,-122.593 26.3534,-119.093 29.3534,-115.593 32.3534,-119.093 29.3534,-122.593"/>
</g>
<!-- P_46132&#45;&gt;G_4895 -->
<g id="edge60" class="edge"><title>P_46132&#45;&gt;G_4895</title>
<path fill="none" stroke="black" d="M55.5844,-73.6959C50.3148,-82.8157 35.2634,-108.864 30.6885,-116.782"/>
</g>
<!-- G_6529 -->
<g id="node63" class="node"><title>G_6529</title>
<polygon fill="#00ff00" stroke="#00ff00" points="92.884,-84.2546 89.884,-80.7546 92.884,-77.2546 95.884,-80.7546 92.884,-84.2546"/>
</g>
<!-- P_46132&#45;&gt;G_6529 -->
<g id="edge62" class="edge"><title>P_46132&#45;&gt;G_6529</title>
<path fill="none" stroke="black" d="M60.6986,-71.4537C67.6934,-73.4751 83.9783,-78.181 90.3054,-80.0094"/>
</g>
<!-- G_6533 -->
<g id="node65" class="node"><title>G_6533</title>
<polygon fill="#00ff00" stroke="#00ff00" points="102.438,-109.742 99.4377,-106.242 102.438,-102.742 105.438,-106.242 102.438,-109.742"/>
</g>
<!-- P_46132&#45;&gt;G_6533 -->
<g id="edge64" class="edge"><title>P_46132&#45;&gt;G_6533</title>
<path fill="none" stroke="black" d="M60.1072,-72.6364C68.2833,-79.1273 92.7979,-98.5892 100.259,-104.513"/>
</g>
<!-- G_6534 -->
<g id="node67" class="node"><title>G_6534</title>
<polygon fill="#00ff00" stroke="#00ff00" points="79.1318,-41.9578 76.1318,-38.4578 79.1318,-34.9578 82.1318,-38.4578 79.1318,-41.9578"/>
</g>
<!-- P_46132&#45;&gt;G_6534 -->
<g id="edge66" class="edge"><title>P_46132&#45;&gt;G_6534</title>
<path fill="none" stroke="black" d="M59.4295,-67.5503C63.7953,-61.1037 74.0733,-45.9272 77.774,-40.4626"/>
</g>
<!-- G_7159 -->
<g id="node69" class="node"><title>G_7159</title>
<polygon fill="#00ff00" stroke="#00ff00" points="53.164,-124.937 50.164,-121.437 53.164,-117.937 56.164,-121.437 53.164,-124.937"/>
</g>
<!-- P_46132&#45;&gt;G_7159 -->
<g id="edge68" class="edge"><title>P_46132&#45;&gt;G_7159</title>
<path fill="none" stroke="black" d="M57.1198,-74.1708C56.3258,-83.6589 54.2106,-108.932 53.4453,-118.076"/>
</g>
<!-- G_8527 -->
<g id="node71" class="node"><title>G_8527</title>
<polygon fill="#00ff00" stroke="#00ff00" points="15.5651,-108.947 12.5651,-105.447 15.5651,-101.947 18.5651,-105.447 15.5651,-108.947"/>
</g>
<!-- P_46132&#45;&gt;G_8527 -->
<g id="edge70" class="edge"><title>P_46132&#45;&gt;G_8527</title>
<path fill="none" stroke="black" d="M54.6797,-72.8006C46.8219,-79.359 24.3779,-98.0915 17.556,-103.785"/>
</g>
<!-- G_8686 -->
<g id="node73" class="node"><title>G_8686</title>
<polygon fill="#00ff00" stroke="#00ff00" points="73.3906,-56.7075 70.3906,-53.2075 73.3906,-49.7075 76.3906,-53.2075 73.3906,-56.7075"/>
</g>
<!-- P_46132&#45;&gt;G_8686 -->
<g id="edge72" class="edge"><title>P_46132&#45;&gt;G_8686</title>
<path fill="none" stroke="black" d="M59.6461,-68.1025C62.7989,-64.6858 68.52,-58.4859 71.4887,-55.2686"/>
</g>
<!-- G_225 -->
<g id="node75" class="node"><title>G_225</title>
<polygon fill="#ff0000" stroke="#ff0000" points="107.953,-71.48 104.953,-67.98 107.953,-64.48 110.953,-67.98 107.953,-71.48"/>
</g>
<!-- P_46132&#45;&gt;G_225 -->
<g id="edge74" class="edge"><title>P_46132&#45;&gt;G_225</title>
<path fill="none" stroke="black" d="M60.4357,-70.3575C69.4437,-69.9068 96.1193,-68.5721 105.023,-68.1266"/>
</g>
<!-- G_725 -->
<g id="node77" class="node"><title>G_725</title>
<polygon fill="#ff0000" stroke="#ff0000" points="41.3635,-106.401 38.3635,-102.901 41.3635,-99.4009 44.3635,-102.901 41.3635,-106.401"/>
</g>
<!-- P_46132&#45;&gt;G_725 -->
<g id="edge76" class="edge"><title>P_46132&#45;&gt;G_725</title>
<path fill="none" stroke="black" d="M55.8275,-73.7325C52.5898,-80.2616 45.3274,-94.9071 42.5106,-100.588"/>
</g>
<!-- G_1080 -->
<g id="node79" class="node"><title>G_1080</title>
<polygon fill="#ff0000" stroke="#ff0000" points="110.037,-83.7521 107.037,-80.2521 110.037,-76.7521 113.037,-80.2521 110.037,-83.7521"/>
</g>
<!-- P_46132&#45;&gt;G_1080 -->
<g id="edge78" class="edge"><title>P_46132&#45;&gt;G_1080</title>
<path fill="none" stroke="black" d="M60.5598,-71.0885C70.0277,-72.842 98.2406,-78.0673 107.243,-79.7346"/>
</g>
<!-- G_3269 -->
<g id="node81" class="node"><title>G_3269</title>
<polygon fill="#ff0000" stroke="#ff0000" points="6.466,-92.66 3.466,-89.16 6.466,-85.66 9.466,-89.16 6.466,-92.66"/>
</g>
<!-- P_46132&#45;&gt;G_3269 -->
<g id="edge80" class="edge"><title>P_46132&#45;&gt;G_3269</title>
<path fill="none" stroke="black" d="M54.3912,-71.619C45.1345,-75.007 17.3799,-85.1654 8.93252,-88.2572"/>
</g>
<!-- G_3927 -->
<g id="node83" class="node"><title>G_3927</title>
<polygon fill="#ff0000" stroke="#ff0000" points="87.6479,-65.4104 84.6479,-61.9104 87.6479,-58.4104 90.6479,-61.9104 87.6479,-65.4104"/>
</g>
<!-- P_46132&#45;&gt;G_3927 -->
<g id="edge82" class="edge"><title>P_46132&#45;&gt;G_3927</title>
<path fill="none" stroke="black" d="M60.6606,-69.588C66.7515,-67.8552 79.7971,-64.1438 85.2131,-62.603"/>
</g>
<!-- G_4798 -->
<g id="node85" class="node"><title>G_4798</title>
<polygon fill="#ff0000" stroke="#ff0000" points="73.7068,-104.378 70.7068,-100.878 73.7068,-97.3784 76.7068,-100.878 73.7068,-104.378"/>
</g>
<!-- P_46132&#45;&gt;G_4798 -->
<g id="edge84" class="edge"><title>P_46132&#45;&gt;G_4798</title>
<path fill="none" stroke="black" d="M59.1687,-73.7583C62.4498,-79.8791 69.4775,-92.989 72.3952,-98.4316"/>
</g>
<!-- G_4896 -->
<g id="node87" class="node"><title>G_4896</title>
<polygon fill="#ff0000" stroke="#ff0000" points="30.5677,-67.9034 27.5677,-64.4034 30.5677,-60.9034 33.5677,-64.4034 30.5677,-67.9034"/>
</g>
<!-- P_46132&#45;&gt;G_4896 -->
<g id="edge86" class="edge"><title>P_46132&#45;&gt;G_4896</title>
<path fill="none" stroke="black" d="M54.133,-69.7596C48.7539,-68.537 38.188,-66.1354 33.2412,-65.0111"/>
</g>
<!-- G_4900 -->
<g id="node89" class="node"><title>G_4900</title>
<polygon fill="#ff0000" stroke="#ff0000" points="74.1499,-79.528 71.1499,-76.028 74.1499,-72.528 77.1499,-76.028 74.1499,-79.528"/>
</g>
<!-- P_46132&#45;&gt;G_4900 -->
<g id="edge88" class="edge"><title>P_46132&#45;&gt;G_4900</title>
<path fill="none" stroke="black" d="M60.3394,-71.4696C63.4837,-72.5075 68.4488,-74.1463 71.4907,-75.1503"/>
</g>
<!-- G_4901 -->
<g id="node91" class="node"><title>G_4901</title>
<polygon fill="#ff0000" stroke="#ff0000" points="55.98,-23.3744 52.98,-19.8744 55.98,-16.3744 58.98,-19.8744 55.98,-23.3744"/>
</g>
<!-- P_46132&#45;&gt;G_4901 -->
<g id="edge90" class="edge"><title>P_46132&#45;&gt;G_4901</title>
<path fill="none" stroke="black" d="M57.3224,-66.8667C57.0555,-57.5244 56.3489,-32.7888 56.0831,-23.4829"/>
</g>
<!-- G_6145 -->
<g id="node93" class="node"><title>G_6145</title>
<polygon fill="#ff0000" stroke="#ff0000" points="82.3344,-93.4377 79.3344,-89.9377 82.3344,-86.4377 85.3344,-89.9377 82.3344,-93.4377"/>
</g>
<!-- P_46132&#45;&gt;G_6145 -->
<g id="edge92" class="edge"><title>P_46132&#45;&gt;G_6145</title>
<path fill="none" stroke="black" d="M60.092,-72.5874C65.112,-76.5033 75.8639,-84.8904 80.3277,-88.3724"/>
</g>
<!-- G_7229 -->
<g id="node95" class="node"><title>G_7229</title>
<polygon fill="#ff0000" stroke="#ff0000" points="31.3588,-24.8565 28.3588,-21.3565 31.3588,-17.8565 34.3588,-21.3565 31.3588,-24.8565"/>
</g>
<!-- P_46132&#45;&gt;G_7229 -->
<g id="edge94" class="edge"><title>P_46132&#45;&gt;G_7229</title>
<path fill="none" stroke="black" d="M55.716,-67.2831C50.8228,-58.0568 36.8467,-31.7041 32.5986,-23.6941"/>
</g>
<!-- G_8375 -->
<g id="node97" class="node"><title>G_8375</title>
<polygon fill="#ff0000" stroke="#ff0000" points="85.9703,-113.729 82.9703,-110.229 85.9703,-106.729 88.9703,-110.229 85.9703,-113.729"/>
</g>
<!-- P_46132&#45;&gt;G_8375 -->
<g id="edge96" class="edge"><title>P_46132&#45;&gt;G_8375</title>
<path fill="none" stroke="black" d="M59.4792,-73.3648C64.8991,-80.9071 79.5096,-101.239 84.3719,-108.005"/>
</g>
<!-- P_68377 -->
<g id="node99" class="node"><title>P_68377</title>
<ellipse fill="#000000" stroke="#000000" cx="121.553" cy="-73.0087" rx="3" ry="3.5"/>
</g>
<!-- P_68377&#45;&gt;G_509 -->
<g id="edge100" class="edge"><title>P_68377&#45;&gt;G_509</title>
<path fill="none" stroke="black" d="M124.48,-71.9665C133.408,-68.7878 160.178,-59.2569 168.325,-56.3561"/>
</g>
<!-- P_68377&#45;&gt;G_816 -->
<g id="edge102" class="edge"><title>P_68377&#45;&gt;G_816</title>
<path fill="none" stroke="black" d="M124.526,-74.4618C133.591,-78.8934 160.774,-92.1808 169.047,-96.2249"/>
</g>
<!-- P_68377&#45;&gt;G_4327 -->
<g id="edge108" class="edge"><title>P_68377&#45;&gt;G_4327</title>
<path fill="none" stroke="black" d="M123.77,-69.9994C128.603,-63.4404 139.979,-47.9994 144.076,-42.4396"/>
</g>
<!-- P_68377&#45;&gt;G_4455 -->
<g id="edge110" class="edge"><title>P_68377&#45;&gt;G_4455</title>
<path fill="none" stroke="black" d="M124.459,-71.3459C129.206,-68.6299 138.529,-63.2951 142.894,-60.7974"/>
</g>
<!-- P_68377&#45;&gt;G_4456 -->
<g id="edge112" class="edge"><title>P_68377&#45;&gt;G_4456</title>
<path fill="none" stroke="black" d="M123.975,-75.1C129.154,-79.5705 141.209,-89.9783 145.893,-94.0221"/>
</g>
<!-- P_68377&#45;&gt;G_4459 -->
<g id="edge114" class="edge"><title>P_68377&#45;&gt;G_4459</title>
<path fill="none" stroke="black" d="M124.119,-75.429C131.458,-82.3532 152.423,-102.13 158.795,-108.142"/>
</g>
<!-- P_68377&#45;&gt;G_4491 -->
<g id="edge116" class="edge"><title>P_68377&#45;&gt;G_4491</title>
<path fill="none" stroke="black" d="M124.621,-74.2871C129.074,-76.1424 137.233,-79.5417 141.253,-81.2167"/>
</g>
<!-- P_68377&#45;&gt;G_8492 -->
<g id="edge124" class="edge"><title>P_68377&#45;&gt;G_8492</title>
<path fill="none" stroke="black" d="M124.507,-73.6256C133.349,-75.4719 159.532,-80.9396 168.272,-82.7645"/>
</g>
<!-- P_68377&#45;&gt;G_3731 -->
<g id="edge132" class="edge"><title>P_68377&#45;&gt;G_3731</title>
<path fill="none" stroke="black" d="M124.798,-73.6475C131.598,-74.9862 147.252,-78.068 153.776,-79.3523"/>
</g>
<!-- P_68377&#45;&gt;G_8369 -->
<g id="edge142" class="edge"><title>P_68377&#45;&gt;G_8369</title>
<path fill="none" stroke="black" d="M124.141,-70.8373C131.545,-64.625 152.693,-46.8811 159.121,-41.4878"/>
</g>
<!-- P_68377&#45;&gt;G_430 -->
<g id="edge98" class="edge"><title>P_68377&#45;&gt;G_430</title>
<path fill="none" stroke="black" d="M120.422,-69.7047C118.177,-63.1456 113.196,-48.5925 111.125,-42.5393"/>
</g>
<!-- P_68377&#45;&gt;G_888 -->
<g id="edge104" class="edge"><title>P_68377&#45;&gt;G_888</title>
<path fill="none" stroke="black" d="M120.279,-69.4094C118.838,-65.3393 116.524,-58.8001 115.218,-55.1106"/>
</g>
<!-- P_68377&#45;&gt;G_4204 -->
<g id="edge106" class="edge"><title>P_68377&#45;&gt;G_4204</title>
<path fill="none" stroke="black" d="M119.308,-70.153C113.721,-63.0483 99.3034,-44.7113 94.5122,-38.6179"/>
</g>
<!-- P_68377&#45;&gt;G_6529 -->
<g id="edge118" class="edge"><title>P_68377&#45;&gt;G_6529</title>
<path fill="none" stroke="black" d="M118.485,-73.8377C112.823,-75.3676 100.824,-78.6094 95.5105,-80.0449"/>
</g>
<!-- P_68377&#45;&gt;G_6533 -->
<g id="edge120" class="edge"><title>P_68377&#45;&gt;G_6533</title>
<path fill="none" stroke="black" d="M119.789,-76.0757C116.018,-82.6317 107.239,-97.8951 103.828,-103.825"/>
</g>
<!-- P_68377&#45;&gt;G_6534 -->
<g id="edge122" class="edge"><title>P_68377&#45;&gt;G_6534</title>
<path fill="none" stroke="black" d="M119.026,-70.9509C111.321,-64.6749 88.2169,-45.8573 81.185,-40.1301"/>
</g>
<!-- P_68377&#45;&gt;G_8686 -->
<g id="edge126" class="edge"><title>P_68377&#45;&gt;G_8686</title>
<path fill="none" stroke="black" d="M118.684,-71.8294C109.936,-68.2326 83.7052,-57.4482 75.7217,-54.1659"/>
</g>
<!-- P_68377&#45;&gt;G_225 -->
<g id="edge128" class="edge"><title>P_68377&#45;&gt;G_225</title>
<path fill="none" stroke="black" d="M118.669,-71.9423C116.174,-71.0197 112.612,-69.7026 110.291,-68.8445"/>
</g>
<!-- P_68377&#45;&gt;G_1080 -->
<g id="edge130" class="edge"><title>P_68377&#45;&gt;G_1080</title>
<path fill="none" stroke="black" d="M118.882,-74.6887C116.862,-75.9592 114.123,-77.6823 112.23,-78.8726"/>
</g>
<!-- P_68377&#45;&gt;G_3927 -->
<g id="edge134" class="edge"><title>P_68377&#45;&gt;G_3927</title>
<path fill="none" stroke="black" d="M118.424,-71.9845C111.736,-69.7951 96.1637,-64.6979 90.1136,-62.7175"/>
</g>
<!-- P_68377&#45;&gt;G_4798 -->
<g id="edge136" class="edge"><title>P_68377&#45;&gt;G_4798</title>
<path fill="none" stroke="black" d="M118.703,-74.6686C110.012,-79.731 83.9537,-94.9097 76.0226,-99.5295"/>
</g>
<!-- P_68377&#45;&gt;G_4900 -->
<g id="edge138" class="edge"><title>P_68377&#45;&gt;G_4900</title>
<path fill="none" stroke="black" d="M118.443,-73.2068C109.874,-73.7526 85.9893,-75.2739 77.3337,-75.8252"/>
</g>
<!-- P_68377&#45;&gt;G_6145 -->
<g id="edge140" class="edge"><title>P_68377&#45;&gt;G_6145</title>
<path fill="none" stroke="black" d="M118.733,-74.2262C111.286,-77.4407 91.2111,-86.106 84.5305,-88.9897"/>
</g>
<!-- P_68377&#45;&gt;G_8375 -->
<g id="edge144" class="edge"><title>P_68377&#45;&gt;G_8375</title>
<path fill="none" stroke="black" d="M119.218,-75.4509C112.539,-82.4376 93.4613,-102.394 87.6626,-108.459"/>
</g>
<!-- P_74372 -->
<g id="node124" class="node"><title>P_74372</title>
<ellipse fill="#000000" stroke="#000000" cx="158.629" cy="-55.4097" rx="3" ry="3.5"/>
</g>
<!-- P_74372&#45;&gt;G_509 -->
<g id="edge148" class="edge"><title>P_74372&#45;&gt;G_509</title>
<path fill="none" stroke="black" d="M161.928,-55.4369C163.716,-55.4516 165.91,-55.4697 167.657,-55.4841"/>
</g>
<!-- P_74372&#45;&gt;G_3152 -->
<g id="edge152" class="edge"><title>P_74372&#45;&gt;G_3152</title>
<path fill="none" stroke="black" d="M161.252,-57.4118C168.757,-63.1397 190.195,-79.5001 196.711,-84.4729"/>
</g>
<!-- P_74372&#45;&gt;G_4327 -->
<g id="edge154" class="edge"><title>P_74372&#45;&gt;G_4327</title>
<path fill="none" stroke="black" d="M156.355,-52.7952C153.785,-49.8386 149.655,-45.0885 147.325,-42.4085"/>
</g>
<!-- P_74372&#45;&gt;G_4455 -->
<g id="edge156" class="edge"><title>P_74372&#45;&gt;G_4455</title>
<path fill="none" stroke="black" d="M155.526,-56.3462C153.18,-57.0544 149.999,-58.0149 147.801,-58.6785"/>
</g>
<!-- P_74372&#45;&gt;G_4456 -->
<g id="edge158" class="edge"><title>P_74372&#45;&gt;G_4456</title>
<path fill="none" stroke="black" d="M157.705,-58.8423C155.619,-66.6007 150.569,-85.3801 148.604,-92.6892"/>
</g>
<!-- P_74372&#45;&gt;G_4491 -->
<g id="edge160" class="edge"><title>P_74372&#45;&gt;G_4491</title>
<path fill="none" stroke="black" d="M156.788,-58.695C153.72,-64.1727 147.631,-75.0425 144.945,-79.8368"/>
</g>
<!-- P_74372&#45;&gt;G_5982 -->
<g id="edge162" class="edge"><title>P_74372&#45;&gt;G_5982</title>
<path fill="none" stroke="black" d="M161.772,-55.8969C170.599,-57.265 195.509,-61.1255 203.811,-62.4121"/>
</g>
<!-- P_74372&#45;&gt;G_6552 -->
<g id="edge164" class="edge"><title>P_74372&#45;&gt;G_6552</title>
<path fill="none" stroke="black" d="M161.671,-54.8967C168.047,-53.8216 182.726,-51.3467 188.842,-50.3153"/>
</g>
<!-- P_74372&#45;&gt;G_6667 -->
<g id="edge166" class="edge"><title>P_74372&#45;&gt;G_6667</title>
<path fill="none" stroke="black" d="M161.822,-54.5848C170.787,-52.2684 196.088,-45.7319 204.52,-43.5534"/>
</g>
<!-- P_74372&#45;&gt;G_8492 -->
<g id="edge168" class="edge"><title>P_74372&#45;&gt;G_8492</title>
<path fill="none" stroke="black" d="M160.164,-58.8376C162.723,-64.5529 167.802,-75.8943 170.042,-80.8966"/>
</g>
<!-- P_74372&#45;&gt;G_241 -->
<g id="edge172" class="edge"><title>P_74372&#45;&gt;G_241</title>
<path fill="none" stroke="black" d="M161.501,-53.4265C168.648,-48.4924 187.094,-35.7577 193.223,-31.5259"/>
</g>
<!-- P_74372&#45;&gt;G_3731 -->
<g id="edge176" class="edge"><title>P_74372&#45;&gt;G_3731</title>
<path fill="none" stroke="black" d="M158.329,-59.2411C157.959,-63.9824 157.334,-71.9834 156.979,-76.521"/>
</g>
<!-- P_74372&#45;&gt;G_6120 -->
<g id="edge180" class="edge"><title>P_74372&#45;&gt;G_6120</title>
<path fill="none" stroke="black" d="M160.871,-52.6503C165.18,-47.3498 174.506,-35.876 178.117,-31.4335"/>
</g>
<!-- P_74372&#45;&gt;G_8369 -->
<g id="edge182" class="edge"><title>P_74372&#45;&gt;G_8369</title>
<path fill="none" stroke="black" d="M159.178,-51.8157C159.571,-49.2407 160.098,-45.7968 160.483,-43.2762"/>
</g>
<!-- P_74372&#45;&gt;G_430 -->
<g id="edge146" class="edge"><title>P_74372&#45;&gt;G_430</title>
<path fill="none" stroke="black" d="M155.451,-54.3865C146.527,-51.5136 121.345,-43.4066 112.953,-40.7047"/>
</g>
<!-- P_74372&#45;&gt;G_888 -->
<g id="edge150" class="edge"><title>P_74372&#45;&gt;G_888</title>
<path fill="none" stroke="black" d="M155.436,-55.1893C147.167,-54.6184 125.139,-53.0977 117.169,-52.5475"/>
</g>
<!-- P_74372&#45;&gt;G_225 -->
<g id="edge170" class="edge"><title>P_74372&#45;&gt;G_225</title>
<path fill="none" stroke="black" d="M155.61,-56.1584C146.576,-58.3994 119.822,-65.0359 110.892,-67.251"/>
</g>
<!-- P_74372&#45;&gt;G_1080 -->
<g id="edge174" class="edge"><title>P_74372&#45;&gt;G_1080</title>
<path fill="none" stroke="black" d="M155.734,-56.8893C146.908,-61.4018 120.443,-74.9317 112.389,-79.0497"/>
</g>
<!-- G_3882 -->
<g id="node141" class="node"><title>G_3882</title>
<polygon fill="#ff0000" stroke="#ff0000" points="165.605,-8 162.605,-4.5 165.605,-1 168.605,-4.5 165.605,-8"/>
</g>
<!-- P_74372&#45;&gt;G_3882 -->
<g id="edge178" class="edge"><title>P_74372&#45;&gt;G_3882</title>
<path fill="none" stroke="black" d="M159.13,-51.7484C160.43,-42.264 163.892,-17.0004 165.144,-7.86002"/>
</g>
<!-- P_99617 -->
<g id="node145" class="node"><title>P_99617</title>
<ellipse fill="#000000" stroke="#000000" cx="116.817" cy="-101.805" rx="3" ry="3.5"/>
</g>
<!-- P_99617&#45;&gt;G_225 -->
<g id="edge184" class="edge"><title>P_99617&#45;&gt;G_225</title>
<path fill="none" stroke="black" d="M115.935,-98.4382C114.183,-91.7541 110.297,-76.9237 108.68,-70.7552"/>
</g>
<!-- P_99617&#45;&gt;G_1080 -->
<g id="edge186" class="edge"><title>P_99617&#45;&gt;G_1080</title>
<path fill="none" stroke="black" d="M115.757,-98.4375C114.417,-94.1753 112.133,-86.9162 110.896,-82.9818"/>
</g>
<!-- P_488307 -->
<g id="node148" class="node"><title>P_488307</title>
<ellipse fill="#000000" stroke="#000000" cx="143.28" cy="-115.57" rx="3" ry="3.5"/>
</g>
<!-- P_488307&#45;&gt;G_4456 -->
<g id="edge188" class="edge"><title>P_488307&#45;&gt;G_4456</title>
<path fill="none" stroke="black" d="M144.068,-112.104C144.938,-108.273 146.325,-102.171 147.141,-98.5797"/>
</g>
<!-- P_488307&#45;&gt;G_4491 -->
<g id="edge190" class="edge"><title>P_488307&#45;&gt;G_4491</title>
<path fill="none" stroke="black" d="M143.316,-111.999C143.381,-105.678 143.514,-92.5716 143.58,-86.0549"/>
</g>
<!-- P_488307&#45;&gt;G_8490 -->
<g id="edge194" class="edge"><title>P_488307&#45;&gt;G_8490</title>
<path fill="none" stroke="black" d="M146.473,-116.423C153.298,-118.247 169.189,-122.493 175.363,-124.142"/>
</g>
<!-- P_488307&#45;&gt;G_3731 -->
<g id="edge196" class="edge"><title>P_488307&#45;&gt;G_3731</title>
<path fill="none" stroke="black" d="M144.52,-112.281C147.17,-105.25 153.339,-88.8819 155.736,-82.5223"/>
</g>
<!-- P_488307&#45;&gt;G_6533 -->
<g id="edge192" class="edge"><title>P_488307&#45;&gt;G_6533</title>
<path fill="none" stroke="black" d="M140.075,-114.838C132.252,-113.052 112.295,-108.493 105.086,-106.847"/>
</g>
<!-- P_708537 -->
<g id="node154" class="node"><title>P_708537</title>
<ellipse fill="#000000" stroke="#000000" cx="194.552" cy="-110.424" rx="3" ry="3.5"/>
</g>
<!-- P_708537&#45;&gt;G_816 -->
<g id="edge198" class="edge"><title>P_708537&#45;&gt;G_816</title>
<path fill="none" stroke="black" d="M191.721,-108.828C187.097,-106.221 178.013,-101.099 173.761,-98.7016"/>
</g>
<!-- P_708537&#45;&gt;G_3152 -->
<g id="edge200" class="edge"><title>P_708537&#45;&gt;G_3152</title>
<path fill="none" stroke="black" d="M195.187,-106.596C195.99,-101.751 197.357,-93.4995 198.098,-89.0271"/>
</g>
<!-- P_708537&#45;&gt;G_4459 -->
<g id="edge202" class="edge"><title>P_708537&#45;&gt;G_4459</title>
<path fill="none" stroke="black" d="M191.424,-110.376C184.999,-110.275 170.376,-110.048 163.874,-109.946"/>
</g>
<!-- P_708537&#45;&gt;G_6553 -->
<g id="edge204" class="edge"><title>P_708537&#45;&gt;G_6553</title>
<path fill="none" stroke="black" d="M197.751,-109.883C202.293,-109.114 210.537,-107.718 214.814,-106.994"/>
</g>
<!-- P_708537&#45;&gt;G_8492 -->
<g id="edge206" class="edge"><title>P_708537&#45;&gt;G_8492</title>
<path fill="none" stroke="black" d="M192.392,-107.927C187.775,-102.589 177.026,-90.1615 172.85,-85.333"/>
</g>
</g>
</svg>
