<?xml version="1.0" encoding="UTF-8" standalone="no"?>
<!DOCTYPE svg PUBLIC "-//W3C//DTD SVG 1.1//EN"
 "http://www.w3.org/Graphics/SVG/1.1/DTD/svg11.dtd">
<!-- Generated by graphviz version 2.26.3 (20100126.1600)
 -->
<!-- Title: G_component_4 Pages: 1 -->
<svg width="280pt" height="148pt"
 viewBox="0.00 0.00 279.67 148.20" xmlns="http://www.w3.org/2000/svg" xmlns:xlink="http://www.w3.org/1999/xlink">
<g id="graph1" class="graph" transform="scale(1 1) rotate(0) translate(4 144.202)">
<title>G_component_4</title>
<polygon fill="#808080" stroke="#808080" points="-4,5 -4,-144.202 276.674,-144.202 276.674,5 -4,5"/>
<!-- P_522 -->
<g id="node1" class="node"><title>P_522</title>
<ellipse fill="#000000" stroke="#000000" cx="89.4894" cy="-53.5457" rx="3" ry="3.5"/>
</g>
<!-- G_8437 -->
<g id="node2" class="node"><title>G_8437</title>
<polygon fill="#00ff00" stroke="#00ff00" points="100.865,-58.6733 97.8651,-55.1733 100.865,-51.6733 103.865,-55.1733 100.865,-58.6733"/>
</g>
<!-- P_522&#45;&gt;G_8437 -->
<g id="edge2" class="edge"><title>P_522&#45;&gt;G_8437</title>
<path fill="none" stroke="black" d="M92.5979,-53.9905C94.2819,-54.2314 96.3487,-54.5271 97.9945,-54.7626"/>
</g>
<!-- G_5236 -->
<g id="node4" class="node"><title>G_5236</title>
<polygon fill="#ff0000" stroke="#ff0000" points="86.3288,-70.0972 83.3288,-66.5972 86.3288,-63.0972 89.3288,-66.5972 86.3288,-70.0972"/>
</g>
<!-- P_522&#45;&gt;G_5236 -->
<g id="edge4" class="edge"><title>P_522&#45;&gt;G_5236</title>
<path fill="none" stroke="black" d="M88.6257,-57.1121C88.1286,-59.165 87.5114,-61.7136 87.042,-63.6519"/>
</g>
<!-- G_7654 -->
<g id="node6" class="node"><title>G_7654</title>
<polygon fill="#ff0000" stroke="#ff0000" points="84.9625,-63.6823 81.9625,-60.1823 84.9625,-56.6823 87.9625,-60.1823 84.9625,-63.6823"/>
</g>
<!-- P_522&#45;&gt;G_7654 -->
<g id="edge6" class="edge"><title>P_522&#45;&gt;G_7654</title>
<path fill="none" stroke="black" d="M87.4379,-56.5534C87.0636,-57.1021 86.6815,-57.6623 86.333,-58.1731"/>
</g>
<!-- P_612 -->
<g id="node8" class="node"><title>P_612</title>
<ellipse fill="#000000" stroke="#000000" cx="149.085" cy="-75.2882" rx="3" ry="3.5"/>
</g>
<!-- G_131 -->
<g id="node9" class="node"><title>G_131</title>
<polygon fill="#00ff00" stroke="#00ff00" points="147.693,-91.2046 144.693,-87.7046 147.693,-84.2046 150.693,-87.7046 147.693,-91.2046"/>
</g>
<!-- P_612&#45;&gt;G_131 -->
<g id="edge8" class="edge"><title>P_612&#45;&gt;G_131</title>
<path fill="none" stroke="black" d="M148.675,-78.9464C148.483,-80.6632 148.255,-82.6949 148.067,-84.369"/>
</g>
<!-- G_390 -->
<g id="node11" class="node"><title>G_390</title>
<polygon fill="#00ff00" stroke="#00ff00" points="125.677,-76.1309 122.677,-72.6309 125.677,-69.1309 128.677,-72.6309 125.677,-76.1309"/>
</g>
<!-- P_612&#45;&gt;G_390 -->
<g id="edge10" class="edge"><title>P_612&#45;&gt;G_390</title>
<path fill="none" stroke="black" d="M145.831,-74.9187C141.208,-74.3939 132.819,-73.4417 128.466,-72.9475"/>
</g>
<!-- G_1622 -->
<g id="node13" class="node"><title>G_1622</title>
<polygon fill="#00ff00" stroke="#00ff00" points="124.569,-82.123 121.569,-78.623 124.569,-75.123 127.569,-78.623 124.569,-82.123"/>
</g>
<!-- P_612&#45;&gt;G_1622 -->
<g id="edge12" class="edge"><title>P_612&#45;&gt;G_1622</title>
<path fill="none" stroke="black" d="M146.079,-75.6971C141.272,-76.351 131.925,-77.6225 127.298,-78.2517"/>
</g>
<!-- G_1715 -->
<g id="node15" class="node"><title>G_1715</title>
<polygon fill="#00ff00" stroke="#00ff00" points="161.694,-82.272 158.694,-78.772 161.694,-75.272 164.694,-78.772 161.694,-82.272"/>
</g>
<!-- P_612&#45;&gt;G_1715 -->
<g id="edge14" class="edge"><title>P_612&#45;&gt;G_1715</title>
<path fill="none" stroke="black" d="M152.01,-76.0962C154.105,-76.6751 156.907,-77.4494 158.958,-78.0161"/>
</g>
<!-- G_2048 -->
<g id="node17" class="node"><title>G_2048</title>
<polygon fill="#00ff00" stroke="#00ff00" points="149.762,-55.0001 146.762,-51.5001 149.762,-48.0001 152.762,-51.5001 149.762,-55.0001"/>
</g>
<!-- P_612&#45;&gt;G_2048 -->
<g id="edge16" class="edge"><title>P_612&#45;&gt;G_2048</title>
<path fill="none" stroke="black" d="M149.191,-71.5713C149.319,-67.0762 149.533,-59.5609 149.66,-55.113"/>
</g>
<!-- G_2188 -->
<g id="node19" class="node"><title>G_2188</title>
<polygon fill="#00ff00" stroke="#00ff00" points="156.439,-90.7307 153.439,-87.2307 156.439,-83.7307 159.439,-87.2307 156.439,-90.7307"/>
</g>
<!-- P_612&#45;&gt;G_2188 -->
<g id="edge18" class="edge"><title>P_612&#45;&gt;G_2188</title>
<path fill="none" stroke="black" d="M151.095,-78.5515C152.387,-80.651 154.029,-83.3171 155.15,-85.1368"/>
</g>
<!-- G_7416 -->
<g id="node21" class="node"><title>G_7416</title>
<polygon fill="#00ff00" stroke="#00ff00" points="163.995,-97.0694 160.995,-93.5694 163.995,-90.0694 166.995,-93.5694 163.995,-97.0694"/>
</g>
<!-- P_612&#45;&gt;G_7416 -->
<g id="edge20" class="edge"><title>P_612&#45;&gt;G_7416</title>
<path fill="none" stroke="black" d="M151.158,-77.8301C154.103,-81.4405 159.446,-87.9919 162.219,-91.3914"/>
</g>
<!-- G_332 -->
<g id="node23" class="node"><title>G_332</title>
<polygon fill="#ff0000" stroke="#ff0000" points="179.248,-72.7769 176.248,-69.2769 179.248,-65.7769 182.248,-69.2769 179.248,-72.7769"/>
</g>
<!-- P_612&#45;&gt;G_332 -->
<g id="edge22" class="edge"><title>P_612&#45;&gt;G_332</title>
<path fill="none" stroke="black" d="M152.313,-74.6449C158.271,-73.4576 170.895,-70.9417 176.485,-69.8277"/>
</g>
<!-- G_2400 -->
<g id="node25" class="node"><title>G_2400</title>
<polygon fill="#ff0000" stroke="#ff0000" points="135.095,-86.3071 132.095,-82.8071 135.095,-79.3071 138.095,-82.8071 135.095,-86.3071"/>
</g>
<!-- P_612&#45;&gt;G_2400 -->
<g id="edge24" class="edge"><title>P_612&#45;&gt;G_2400</title>
<path fill="none" stroke="black" d="M146.118,-76.8828C143.423,-78.3312 139.518,-80.4299 137.151,-81.7017"/>
</g>
<!-- G_3387 -->
<g id="node27" class="node"><title>G_3387</title>
<polygon fill="#ff0000" stroke="#ff0000" points="137.498,-96.9901 134.498,-93.4901 137.498,-89.9901 140.498,-93.4901 137.498,-96.9901"/>
</g>
<!-- P_612&#45;&gt;G_3387 -->
<g id="edge26" class="edge"><title>P_612&#45;&gt;G_3387</title>
<path fill="none" stroke="black" d="M147.275,-78.1322C144.933,-81.8117 140.907,-88.1358 138.827,-91.4021"/>
</g>
<!-- G_4550 -->
<g id="node29" class="node"><title>G_4550</title>
<polygon fill="#ff0000" stroke="#ff0000" points="157.344,-66.4224 154.344,-62.9224 157.344,-59.4224 160.344,-62.9224 157.344,-66.4224"/>
</g>
<!-- P_612&#45;&gt;G_4550 -->
<g id="edge28" class="edge"><title>P_612&#45;&gt;G_4550</title>
<path fill="none" stroke="black" d="M151.001,-72.4201C152.526,-70.137 154.622,-66.9977 155.98,-64.9643"/>
</g>
<!-- G_7489 -->
<g id="node31" class="node"><title>G_7489</title>
<polygon fill="#ff0000" stroke="#ff0000" points="137.552,-68.2513 134.552,-64.7513 137.552,-61.2513 140.552,-64.7513 137.552,-68.2513"/>
</g>
<!-- P_612&#45;&gt;G_7489 -->
<g id="edge30" class="edge"><title>P_612&#45;&gt;G_7489</title>
<path fill="none" stroke="black" d="M146.41,-72.8443C144.281,-70.8989 141.353,-68.2239 139.457,-66.4913"/>
</g>
<!-- G_7570 -->
<g id="node33" class="node"><title>G_7570</title>
<polygon fill="#ff0000" stroke="#ff0000" points="163.217,-73.8408 160.217,-70.3408 163.217,-66.8408 166.217,-70.3408 163.217,-73.8408"/>
</g>
<!-- P_612&#45;&gt;G_7570 -->
<g id="edge32" class="edge"><title>P_612&#45;&gt;G_7570</title>
<path fill="none" stroke="black" d="M152.082,-74.239C154.675,-73.3313 158.376,-72.0355 160.787,-71.1913"/>
</g>
<!-- G_7609 -->
<g id="node35" class="node"><title>G_7609</title>
<polygon fill="#ff0000" stroke="#ff0000" points="147.113,-67.1012 144.113,-63.6012 147.113,-60.1012 150.113,-63.6012 147.113,-67.1012"/>
</g>
<!-- P_612&#45;&gt;G_7609 -->
<g id="edge34" class="edge"><title>P_612&#45;&gt;G_7609</title>
<path fill="none" stroke="black" d="M148.461,-71.5904C148.19,-69.9854 147.877,-68.1296 147.621,-66.6109"/>
</g>
<!-- P_5287 -->
<g id="node37" class="node"><title>P_5287</title>
<ellipse fill="#000000" stroke="#000000" cx="122.562" cy="-91.0943" rx="3" ry="3.5"/>
</g>
<!-- P_5287&#45;&gt;G_390 -->
<g id="edge38" class="edge"><title>P_5287&#45;&gt;G_390</title>
<path fill="none" stroke="black" d="M123.162,-87.5344C123.728,-84.1811 124.569,-79.1978 125.12,-75.9318"/>
</g>
<!-- P_5287&#45;&gt;G_1622 -->
<g id="edge40" class="edge"><title>P_5287&#45;&gt;G_1622</title>
<path fill="none" stroke="black" d="M123.153,-87.42C123.449,-85.5806 123.803,-83.3814 124.083,-81.6419"/>
</g>
<!-- P_5287&#45;&gt;G_2400 -->
<g id="edge44" class="edge"><title>P_5287&#45;&gt;G_2400</title>
<path fill="none" stroke="black" d="M125.468,-89.1723C127.782,-87.6422 130.964,-85.5383 133.025,-84.1756"/>
</g>
<!-- P_5287&#45;&gt;G_3387 -->
<g id="edge46" class="edge"><title>P_5287&#45;&gt;G_3387</title>
<path fill="none" stroke="black" d="M125.729,-91.6024C128.333,-92.02 131.993,-92.6072 134.538,-93.0153"/>
</g>
<!-- G_34 -->
<g id="node38" class="node"><title>G_34</title>
<polygon fill="#00ff00" stroke="#00ff00" points="108.871,-96.2687 105.871,-92.7687 108.871,-89.2687 111.871,-92.7687 108.871,-96.2687"/>
</g>
<!-- P_5287&#45;&gt;G_34 -->
<g id="edge36" class="edge"><title>P_5287&#45;&gt;G_34</title>
<path fill="none" stroke="black" d="M119.386,-91.4827C117.111,-91.7609 114.069,-92.133 111.842,-92.4054"/>
</g>
<!-- G_263 -->
<g id="node42" class="node"><title>G_263</title>
<polygon fill="#ff0000" stroke="#ff0000" points="121.177,-106.134 118.177,-102.634 121.177,-99.1335 124.177,-102.634 121.177,-106.134"/>
</g>
<!-- P_5287&#45;&gt;G_263 -->
<g id="edge42" class="edge"><title>P_5287&#45;&gt;G_263</title>
<path fill="none" stroke="black" d="M122.124,-94.7454C121.946,-96.2244 121.743,-97.9191 121.57,-99.3577"/>
</g>
<!-- G_5434 -->
<g id="node46" class="node"><title>G_5434</title>
<polygon fill="#ff0000" stroke="#ff0000" points="112.441,-112.968 109.441,-109.468 112.441,-105.968 115.441,-109.468 112.441,-112.968"/>
</g>
<!-- P_5287&#45;&gt;G_5434 -->
<g id="edge48" class="edge"><title>P_5287&#45;&gt;G_5434</title>
<path fill="none" stroke="black" d="M120.799,-94.2949C118.805,-97.9141 115.602,-103.729 113.795,-107.009"/>
</g>
<!-- P_8867 -->
<g id="node48" class="node"><title>P_8867</title>
<ellipse fill="#000000" stroke="#000000" cx="105.382" cy="-67.6381" rx="3" ry="3.5"/>
</g>
<!-- P_8867&#45;&gt;G_8437 -->
<g id="edge54" class="edge"><title>P_8867&#45;&gt;G_8437</title>
<path fill="none" stroke="black" d="M104.148,-64.232C103.395,-62.1561 102.451,-59.5493 101.768,-57.6658"/>
</g>
<!-- P_8867&#45;&gt;G_5236 -->
<g id="edge56" class="edge"><title>P_8867&#45;&gt;G_5236</title>
<path fill="none" stroke="black" d="M102.063,-67.4568C98.4806,-67.2611 92.824,-66.952 89.3583,-66.7627"/>
</g>
<!-- P_8867&#45;&gt;G_7654 -->
<g id="edge58" class="edge"><title>P_8867&#45;&gt;G_7654</title>
<path fill="none" stroke="black" d="M102.191,-66.4731C98.0635,-64.966 90.969,-62.3755 87.3049,-61.0376"/>
</g>
<!-- P_8867&#45;&gt;G_390 -->
<g id="edge50" class="edge"><title>P_8867&#45;&gt;G_390</title>
<path fill="none" stroke="black" d="M108.553,-68.4182C112.477,-69.3837 119.099,-71.0128 122.855,-71.9367"/>
</g>
<!-- P_8867&#45;&gt;G_1622 -->
<g id="edge52" class="edge"><title>P_8867&#45;&gt;G_1622</title>
<path fill="none" stroke="black" d="M108.38,-69.3545C112.258,-71.5751 118.925,-75.3917 122.368,-77.3629"/>
</g>
<!-- P_26877 -->
<g id="node54" class="node"><title>P_26877</title>
<ellipse fill="#000000" stroke="#000000" cx="68.0963" cy="-60.7383" rx="3" ry="3.5"/>
</g>
<!-- P_26877&#45;&gt;G_5236 -->
<g id="edge64" class="edge"><title>P_26877&#45;&gt;G_5236</title>
<path fill="none" stroke="black" d="M71.2721,-61.7588C74.8634,-62.9129 80.6333,-64.767 83.8888,-65.8131"/>
</g>
<!-- P_26877&#45;&gt;G_7654 -->
<g id="edge66" class="edge"><title>P_26877&#45;&gt;G_7654</title>
<path fill="none" stroke="black" d="M71.3483,-60.6311C74.4115,-60.5301 78.9637,-60.3801 81.9472,-60.2817"/>
</g>
<!-- G_46 -->
<g id="node55" class="node"><title>G_46</title>
<polygon fill="#00ff00" stroke="#00ff00" points="43.9217,-61.1693 40.9217,-57.6693 43.9217,-54.1693 46.9217,-57.6693 43.9217,-61.1693"/>
</g>
<!-- P_26877&#45;&gt;G_46 -->
<g id="edge60" class="edge"><title>P_26877&#45;&gt;G_46</title>
<path fill="none" stroke="black" d="M64.7349,-60.3115C59.9606,-59.7055 51.2972,-58.6056 46.8017,-58.0349"/>
</g>
<!-- G_4030 -->
<g id="node57" class="node"><title>G_4030</title>
<polygon fill="#ff0000" stroke="#ff0000" points="60.0369,-67.129 57.0369,-63.629 60.0369,-60.129 63.0369,-63.629 60.0369,-67.129"/>
</g>
<!-- P_26877&#45;&gt;G_4030 -->
<g id="edge62" class="edge"><title>P_26877&#45;&gt;G_4030</title>
<path fill="none" stroke="black" d="M65.1867,-61.7819C64.321,-62.0924 63.3804,-62.4298 62.5428,-62.7302"/>
</g>
<!-- P_35562 -->
<g id="node61" class="node"><title>P_35562</title>
<ellipse fill="#000000" stroke="#000000" cx="207.496" cy="-63.3587" rx="3" ry="3.5"/>
</g>
<!-- P_35562&#45;&gt;G_332 -->
<g id="edge74" class="edge"><title>P_35562&#45;&gt;G_332</title>
<path fill="none" stroke="black" d="M204.473,-63.9921C198.894,-65.161 187.071,-67.6379 181.836,-68.7347"/>
</g>
<!-- G_5344 -->
<g id="node62" class="node"><title>G_5344</title>
<polygon fill="#00ff00" stroke="#00ff00" points="213.574,-51.3921 210.574,-47.8921 213.574,-44.3921 216.574,-47.8921 213.574,-51.3921"/>
</g>
<!-- P_35562&#45;&gt;G_5344 -->
<g id="edge68" class="edge"><title>P_35562&#45;&gt;G_5344</title>
<path fill="none" stroke="black" d="M208.785,-60.0787C209.9,-57.2411 211.492,-53.1901 212.529,-50.5509"/>
</g>
<!-- G_5799 -->
<g id="node64" class="node"><title>G_5799</title>
<polygon fill="#00ff00" stroke="#00ff00" points="231.643,-64.4186 228.643,-60.9186 231.643,-57.4186 234.643,-60.9186 231.643,-64.4186"/>
</g>
<!-- P_35562&#45;&gt;G_5799 -->
<g id="edge70" class="edge"><title>P_35562&#45;&gt;G_5799</title>
<path fill="none" stroke="black" d="M210.854,-63.0194C215.623,-62.5375 224.276,-61.6631 228.767,-61.2093"/>
</g>
<!-- G_6477 -->
<g id="node66" class="node"><title>G_6477</title>
<polygon fill="#00ff00" stroke="#00ff00" points="198.622,-60.1334 195.622,-56.6334 198.622,-53.1334 201.622,-56.6334 198.622,-60.1334"/>
</g>
<!-- P_35562&#45;&gt;G_6477 -->
<g id="edge72" class="edge"><title>P_35562&#45;&gt;G_6477</title>
<path fill="none" stroke="black" d="M204.688,-61.2308C203.388,-60.2457 201.872,-59.0963 200.68,-58.1933"/>
</g>
<!-- G_3037 -->
<g id="node69" class="node"><title>G_3037</title>
<polygon fill="#ff0000" stroke="#ff0000" points="219.978,-68.4881 216.978,-64.9881 219.978,-61.4881 222.978,-64.9881 219.978,-68.4881"/>
</g>
<!-- P_35562&#45;&gt;G_3037 -->
<g id="edge76" class="edge"><title>P_35562&#45;&gt;G_3037</title>
<path fill="none" stroke="black" d="M210.646,-63.7699C212.61,-64.0263 215.121,-64.3541 217.044,-64.6051"/>
</g>
<!-- G_3530 -->
<g id="node71" class="node"><title>G_3530</title>
<polygon fill="#ff0000" stroke="#ff0000" points="215.18,-59.7904 212.18,-56.2904 215.18,-52.7904 218.18,-56.2904 215.18,-59.7904"/>
</g>
<!-- P_35562&#45;&gt;G_3530 -->
<g id="edge78" class="edge"><title>P_35562&#45;&gt;G_3530</title>
<path fill="none" stroke="black" d="M209.927,-61.1223C211.053,-60.0869 212.366,-58.8789 213.398,-57.9298"/>
</g>
<!-- G_5444 -->
<g id="node73" class="node"><title>G_5444</title>
<polygon fill="#ff0000" stroke="#ff0000" points="210.623,-80.2024 207.623,-76.7024 210.623,-73.2024 213.623,-76.7024 210.623,-80.2024"/>
</g>
<!-- P_35562&#45;&gt;G_5444 -->
<g id="edge80" class="edge"><title>P_35562&#45;&gt;G_5444</title>
<path fill="none" stroke="black" d="M208.351,-67.005C208.843,-69.1038 209.453,-71.7095 209.918,-73.6912"/>
</g>
<!-- P_64702 -->
<g id="node75" class="node"><title>P_64702</title>
<ellipse fill="#000000" stroke="#000000" cx="150.34" cy="-32.7721" rx="3" ry="3.5"/>
</g>
<!-- P_64702&#45;&gt;G_2048 -->
<g id="edge84" class="edge"><title>P_64702&#45;&gt;G_2048</title>
<path fill="none" stroke="black" d="M150.229,-36.383C150.126,-39.6993 149.976,-44.5874 149.873,-47.9002"/>
</g>
<!-- G_1736 -->
<g id="node76" class="node"><title>G_1736</title>
<polygon fill="#00ff00" stroke="#00ff00" points="150.842,-20.7016 147.842,-17.2016 150.842,-13.7016 153.842,-17.2016 150.842,-20.7016"/>
</g>
<!-- P_64702&#45;&gt;G_1736 -->
<g id="edge82" class="edge"><title>P_64702&#45;&gt;G_1736</title>
<path fill="none" stroke="black" d="M150.456,-29.1608C150.54,-26.5735 150.651,-23.1129 150.733,-20.5802"/>
</g>
<!-- P_80172 -->
<g id="node79" class="node"><title>P_80172</title>
<ellipse fill="#000000" stroke="#000000" cx="105.293" cy="-123.951" rx="3" ry="3.5"/>
</g>
<!-- P_80172&#45;&gt;G_5434 -->
<g id="edge86" class="edge"><title>P_80172&#45;&gt;G_5434</title>
<path fill="none" stroke="black" d="M106.809,-120.879C108.12,-118.222 109.992,-114.429 111.212,-111.958"/>
</g>
<!-- G_6915 -->
<g id="node81" class="node"><title>G_6915</title>
<polygon fill="#ff0000" stroke="#ff0000" points="99.8848,-139.202 96.8848,-135.702 99.8848,-132.202 102.885,-135.702 99.8848,-139.202"/>
</g>
<!-- P_80172&#45;&gt;G_6915 -->
<g id="edge88" class="edge"><title>P_80172&#45;&gt;G_6915</title>
<path fill="none" stroke="black" d="M103.815,-127.162C102.914,-129.119 101.783,-131.577 100.966,-133.352"/>
</g>
<!-- P_80187 -->
<g id="node83" class="node"><title>P_80187</title>
<ellipse fill="#000000" stroke="#000000" cx="253.25" cy="-57.9735" rx="3" ry="3.5"/>
</g>
<!-- P_80187&#45;&gt;G_5799 -->
<g id="edge94" class="edge"><title>P_80187&#45;&gt;G_5799</title>
<path fill="none" stroke="black" d="M250.246,-58.383C246.071,-58.952 238.571,-59.9744 234.485,-60.5314"/>
</g>
<!-- G_1480 -->
<g id="node84" class="node"><title>G_1480</title>
<polygon fill="#00ff00" stroke="#00ff00" points="258.318,-73.2096 255.318,-69.7096 258.318,-66.2096 261.318,-69.7096 258.318,-73.2096"/>
</g>
<!-- P_80187&#45;&gt;G_1480 -->
<g id="edge90" class="edge"><title>P_80187&#45;&gt;G_1480</title>
<path fill="none" stroke="black" d="M254.635,-61.1805C255.479,-63.135 256.539,-65.5894 257.305,-67.3628"/>
</g>
<!-- G_2755 -->
<g id="node86" class="node"><title>G_2755</title>
<polygon fill="#00ff00" stroke="#00ff00" points="267.174,-65.5492 264.174,-62.0492 267.174,-58.5492 270.174,-62.0492 267.174,-65.5492"/>
</g>
<!-- P_80187&#45;&gt;G_2755 -->
<g id="edge92" class="edge"><title>P_80187&#45;&gt;G_2755</title>
<path fill="none" stroke="black" d="M256.203,-58.8379C258.63,-59.5482 262.043,-60.5472 264.415,-61.2416"/>
</g>
<!-- G_7931 -->
<g id="node89" class="node"><title>G_7931</title>
<polygon fill="#00ff00" stroke="#00ff00" points="265.97,-53.429 262.97,-49.929 265.97,-46.429 268.97,-49.929 265.97,-53.429"/>
</g>
<!-- P_80187&#45;&gt;G_7931 -->
<g id="edge96" class="edge"><title>P_80187&#45;&gt;G_7931</title>
<path fill="none" stroke="black" d="M256.2,-56.1077C258.549,-54.6225 261.778,-52.5802 263.87,-51.2574"/>
</g>
<!-- G_117 -->
<g id="node91" class="node"><title>G_117</title>
<polygon fill="#ff0000" stroke="#ff0000" points="254.721,-48.7936 251.721,-45.2936 254.721,-41.7936 257.721,-45.2936 254.721,-48.7936"/>
</g>
<!-- P_80187&#45;&gt;G_117 -->
<g id="edge98" class="edge"><title>P_80187&#45;&gt;G_117</title>
<path fill="none" stroke="black" d="M253.683,-54.2377C253.887,-52.4845 254.127,-50.4096 254.326,-48.6999"/>
</g>
<!-- P_80212 -->
<g id="node93" class="node"><title>P_80212</title>
<ellipse fill="#000000" stroke="#000000" cx="19.9087" cy="-55.2404" rx="3" ry="3.5"/>
</g>
<!-- P_80212&#45;&gt;G_46 -->
<g id="edge100" class="edge"><title>P_80212&#45;&gt;G_46</title>
<path fill="none" stroke="black" d="M23.2476,-55.5781C27.99,-56.0578 36.5955,-56.9283 41.0609,-57.38"/>
</g>
<!-- G_1934 -->
<g id="node95" class="node"><title>G_1934</title>
<polygon fill="#00ff00" stroke="#00ff00" points="4.5,-59.3074 1.5,-55.8074 4.5,-52.3074 7.5,-55.8074 4.5,-59.3074"/>
</g>
<!-- P_80212&#45;&gt;G_1934 -->
<g id="edge102" class="edge"><title>P_80212&#45;&gt;G_1934</title>
<path fill="none" stroke="black" d="M16.6409,-55.3607C13.9553,-55.4595 10.1787,-55.5984 7.55347,-55.695"/>
</g>
<!-- G_1935 -->
<g id="node97" class="node"><title>G_1935</title>
<polygon fill="#00ff00" stroke="#00ff00" points="15.4272,-44.281 12.4272,-40.781 15.4272,-37.281 18.4272,-40.781 15.4272,-44.281"/>
</g>
<!-- P_80212&#45;&gt;G_1935 -->
<g id="edge104" class="edge"><title>P_80212&#45;&gt;G_1935</title>
<path fill="none" stroke="black" d="M18.8693,-51.8868C18.0832,-49.3506 17.0172,-45.9109 16.2807,-43.5348"/>
</g>
<!-- G_2693 -->
<g id="node99" class="node"><title>G_2693</title>
<polygon fill="#00ff00" stroke="#00ff00" points="6.91816,-49.6874 3.91816,-46.1874 6.91816,-42.6874 9.91816,-46.1874 6.91816,-49.6874"/>
</g>
<!-- P_80212&#45;&gt;G_2693 -->
<g id="edge106" class="edge"><title>P_80212&#45;&gt;G_2693</title>
<path fill="none" stroke="black" d="M17.1537,-53.3205C14.6513,-51.5766 11.0252,-49.0496 8.82798,-47.5183"/>
</g>
<!-- G_4933 -->
<g id="node101" class="node"><title>G_4933</title>
<polygon fill="#00ff00" stroke="#00ff00" points="27.3418,-67.1255 24.3418,-63.6255 27.3418,-60.1255 30.3418,-63.6255 27.3418,-67.1255"/>
</g>
<!-- P_80212&#45;&gt;G_4933 -->
<g id="edge108" class="edge"><title>P_80212&#45;&gt;G_4933</title>
<path fill="none" stroke="black" d="M22.2606,-57.8935C23.3494,-59.1218 24.6197,-60.5548 25.6178,-61.6807"/>
</g>
<!-- G_5029 -->
<g id="node103" class="node"><title>G_5029</title>
<polygon fill="#00ff00" stroke="#00ff00" points="7.91092,-68.9148 4.91092,-65.4148 7.91092,-61.9148 10.9109,-65.4148 7.91092,-68.9148"/>
</g>
<!-- P_80212&#45;&gt;G_5029 -->
<g id="edge110" class="edge"><title>P_80212&#45;&gt;G_5029</title>
<path fill="none" stroke="black" d="M17.126,-57.6002C14.9108,-59.4787 11.865,-62.0617 9.89211,-63.7347"/>
</g>
<!-- G_7231 -->
<g id="node105" class="node"><title>G_7231</title>
<polygon fill="#00ff00" stroke="#00ff00" points="17.1355,-73.4946 14.1355,-69.9946 17.1355,-66.4946 20.1355,-69.9946 17.1355,-73.4946"/>
</g>
<!-- P_80212&#45;&gt;G_7231 -->
<g id="edge112" class="edge"><title>P_80212&#45;&gt;G_7231</title>
<path fill="none" stroke="black" d="M19.2655,-58.6624C18.8047,-61.1141 18.1883,-64.3932 17.7372,-66.7932"/>
</g>
<!-- G_925 -->
<g id="node107" class="node"><title>G_925</title>
<polygon fill="#ff0000" stroke="#ff0000" points="27.0036,-47.9929 24.0036,-44.4929 27.0036,-40.9929 30.0036,-44.4929 27.0036,-47.9929"/>
</g>
<!-- P_80212&#45;&gt;G_925 -->
<g id="edge114" class="edge"><title>P_80212&#45;&gt;G_925</title>
<path fill="none" stroke="black" d="M21.8474,-52.3036C23.0291,-50.5137 24.5128,-48.2661 25.5849,-46.642"/>
</g>
<!-- P_102602 -->
<g id="node109" class="node"><title>P_102602</title>
<ellipse fill="#000000" stroke="#000000" cx="151.227" cy="-4.5" rx="3" ry="3.5"/>
</g>
<!-- P_102602&#45;&gt;G_1736 -->
<g id="edge116" class="edge"><title>P_102602&#45;&gt;G_1736</title>
<path fill="none" stroke="black" d="M151.113,-8.2422C151.06,-9.99845 150.997,-12.0768 150.945,-13.7895"/>
</g>
<!-- P_134287 -->
<g id="node111" class="node"><title>P_134287</title>
<ellipse fill="#000000" stroke="#000000" cx="224.433" cy="-53.5901" rx="3" ry="3.5"/>
</g>
<!-- P_134287&#45;&gt;G_5344 -->
<g id="edge118" class="edge"><title>P_134287&#45;&gt;G_5344</title>
<path fill="none" stroke="black" d="M221.466,-52.0331C219.657,-51.0841 217.386,-49.8925 215.745,-49.0315"/>
</g>
<!-- P_134287&#45;&gt;G_5799 -->
<g id="edge120" class="edge"><title>P_134287&#45;&gt;G_5799</title>
<path fill="none" stroke="black" d="M226.715,-55.9089C227.771,-56.9824 229.003,-58.2348 229.971,-59.2189"/>
</g>
<!-- P_134287&#45;&gt;G_3037 -->
<g id="edge122" class="edge"><title>P_134287&#45;&gt;G_3037</title>
<path fill="none" stroke="black" d="M223.024,-57.1965C222.371,-58.8661 221.61,-60.814 221.011,-62.3445"/>
</g>
<!-- P_134287&#45;&gt;G_3530 -->
<g id="edge124" class="edge"><title>P_134287&#45;&gt;G_3530</title>
<path fill="none" stroke="black" d="M221.505,-54.4445C220.319,-54.7906 218.96,-55.1872 217.807,-55.5238"/>
</g>
<!-- P_637272 -->
<g id="node116" class="node"><title>P_637272</title>
<ellipse fill="#000000" stroke="#000000" cx="138.499" cy="-108.316" rx="3" ry="3.5"/>
</g>
<!-- P_637272&#45;&gt;G_3387 -->
<g id="edge126" class="edge"><title>P_637272&#45;&gt;G_3387</title>
<path fill="none" stroke="black" d="M138.247,-104.575C138.089,-102.241 137.888,-99.2588 137.733,-96.9754"/>
</g>
<!-- P_974507 -->
<g id="node118" class="node"><title>P_974507</title>
<ellipse fill="#000000" stroke="#000000" cx="172.907" cy="-107.947" rx="3" ry="3.5"/>
</g>
<!-- P_974507&#45;&gt;G_7416 -->
<g id="edge128" class="edge"><title>P_974507&#45;&gt;G_7416</title>
<path fill="none" stroke="black" d="M171.017,-104.898C169.3,-102.128 166.813,-98.115 165.305,-95.6831"/>
</g>
<!-- G_7682 -->
<g id="node120" class="node"><title>G_7682</title>
<polygon fill="#ff0000" stroke="#ff0000" points="177.791,-124.027 174.791,-120.527 177.791,-117.027 180.791,-120.527 177.791,-124.027"/>
</g>
<!-- P_974507&#45;&gt;G_7682 -->
<g id="edge130" class="edge"><title>P_974507&#45;&gt;G_7682</title>
<path fill="none" stroke="black" d="M174.242,-111.385C175.055,-113.48 176.077,-116.111 176.815,-118.012"/>
</g>
</g>
</svg>
