<?xml version="1.0" encoding="UTF-8" standalone="no"?>
<!DOCTYPE svg PUBLIC "-//W3C//DTD SVG 1.1//EN"
 "http://www.w3.org/Graphics/SVG/1.1/DTD/svg11.dtd">
<!-- Generated by graphviz version 2.26.3 (20100126.1600)
 -->
<!-- Title: G_component_4 Pages: 1 -->
<svg width="279pt" height="158pt"
 viewBox="0.00 0.00 279.49 158.15" xmlns="http://www.w3.org/2000/svg" xmlns:xlink="http://www.w3.org/1999/xlink">
<g id="graph1" class="graph" transform="scale(1 1) rotate(0) translate(4 154.147)">
<title>G_component_4</title>
<polygon fill="#808080" stroke="#808080" points="-4,5 -4,-154.147 276.487,-154.147 276.487,5 -4,5"/>
<!-- P_987 -->
<g id="node1" class="node"><title>P_987</title>
<ellipse fill="#000000" stroke="#000000" cx="146.463" cy="-103.9" rx="3" ry="3.5"/>
</g>
<!-- G_2668 -->
<g id="node2" class="node"><title>G_2668</title>
<polygon fill="#00ff00" stroke="#00ff00" points="144.997,-125.464 141.997,-121.964 144.997,-118.464 147.997,-121.964 144.997,-125.464"/>
</g>
<!-- P_987&#45;&gt;G_2668 -->
<g id="edge2" class="edge"><title>P_987&#45;&gt;G_2668</title>
<path fill="none" stroke="black" d="M146.152,-107.731C145.896,-110.879 145.537,-115.307 145.287,-118.384"/>
</g>
<!-- G_5274 -->
<g id="node4" class="node"><title>G_5274</title>
<polygon fill="#ff0000" stroke="#ff0000" points="134.182,-89.1259 131.182,-85.6259 134.182,-82.1259 137.182,-85.6259 134.182,-89.1259"/>
</g>
<!-- P_987&#45;&gt;G_5274 -->
<g id="edge4" class="edge"><title>P_987&#45;&gt;G_5274</title>
<path fill="none" stroke="black" d="M144.544,-101.044C142.061,-97.3503 137.794,-91.0013 135.591,-87.7221"/>
</g>
<!-- G_7745 -->
<g id="node6" class="node"><title>G_7745</title>
<polygon fill="#ff0000" stroke="#ff0000" points="139.949,-93.4996 136.949,-89.9996 139.949,-86.4996 142.949,-89.9996 139.949,-93.4996"/>
</g>
<!-- P_987&#45;&gt;G_7745 -->
<g id="edge6" class="edge"><title>P_987&#45;&gt;G_7745</title>
<path fill="none" stroke="black" d="M144.952,-100.676C143.749,-98.1093 142.096,-94.5805 141.025,-92.2949"/>
</g>
<!-- P_3687 -->
<g id="node8" class="node"><title>P_3687</title>
<ellipse fill="#000000" stroke="#000000" cx="165.645" cy="-30.0583" rx="3" ry="3.5"/>
</g>
<!-- G_7725 -->
<g id="node9" class="node"><title>G_7725</title>
<polygon fill="#ff0000" stroke="#ff0000" points="175.04,-50.333 172.04,-46.833 175.04,-43.333 178.04,-46.833 175.04,-50.333"/>
</g>
<!-- P_3687&#45;&gt;G_7725 -->
<g id="edge8" class="edge"><title>P_3687&#45;&gt;G_7725</title>
<path fill="none" stroke="black" d="M167.457,-33.2926C169.334,-36.6439 172.214,-41.7871 173.831,-44.6743"/>
</g>
<!-- P_10472 -->
<g id="node11" class="node"><title>P_10472</title>
<ellipse fill="#000000" stroke="#000000" cx="185.549" cy="-23.5421" rx="3" ry="3.5"/>
</g>
<!-- P_10472&#45;&gt;G_7725 -->
<g id="edge12" class="edge"><title>P_10472&#45;&gt;G_7725</title>
<path fill="none" stroke="black" d="M184.088,-26.7806C181.967,-31.4804 178.081,-40.0917 176.167,-44.3349"/>
</g>
<!-- G_4953 -->
<g id="node12" class="node"><title>G_4953</title>
<polygon fill="#ff0000" stroke="#ff0000" points="190.884,-8 187.884,-4.5 190.884,-1 193.884,-4.5 190.884,-8"/>
</g>
<!-- P_10472&#45;&gt;G_4953 -->
<g id="edge10" class="edge"><title>P_10472&#45;&gt;G_4953</title>
<path fill="none" stroke="black" d="M186.577,-19.8706C187.595,-16.2393 189.131,-10.7545 190.068,-7.41281"/>
</g>
<!-- P_17657 -->
<g id="node15" class="node"><title>P_17657</title>
<ellipse fill="#000000" stroke="#000000" cx="67.3363" cy="-48.1554" rx="3" ry="3.5"/>
</g>
<!-- G_3664 -->
<g id="node16" class="node"><title>G_3664</title>
<polygon fill="#00ff00" stroke="#00ff00" points="47.075,-50.8624 44.075,-47.3624 47.075,-43.8624 50.075,-47.3624 47.075,-50.8624"/>
</g>
<!-- P_17657&#45;&gt;G_3664 -->
<g id="edge14" class="edge"><title>P_17657&#45;&gt;G_3664</title>
<path fill="none" stroke="black" d="M64.1705,-48.0315C60.3418,-47.8816 53.9407,-47.6311 50.1522,-47.4828"/>
</g>
<!-- G_8446 -->
<g id="node18" class="node"><title>G_8446</title>
<polygon fill="#00ff00" stroke="#00ff00" points="86.7964,-76.995 83.7964,-73.495 86.7964,-69.995 89.7964,-73.495 86.7964,-76.995"/>
</g>
<!-- P_17657&#45;&gt;G_8446 -->
<g id="edge16" class="edge"><title>P_17657&#45;&gt;G_8446</title>
<path fill="none" stroke="black" d="M69.4189,-50.8672C73.3409,-55.9742 81.7412,-66.9124 85.2286,-71.4535"/>
</g>
<!-- G_2428 -->
<g id="node20" class="node"><title>G_2428</title>
<polygon fill="#ff0000" stroke="#ff0000" points="54.208,-33.8848 51.208,-30.3848 54.208,-26.8848 57.208,-30.3848 54.208,-33.8848"/>
</g>
<!-- P_17657&#45;&gt;G_2428 -->
<g id="edge18" class="edge"><title>P_17657&#45;&gt;G_2428</title>
<path fill="none" stroke="black" d="M65.285,-45.3788C62.6312,-41.7864 58.0698,-35.6122 55.714,-32.4233"/>
</g>
<!-- G_5492 -->
<g id="node22" class="node"><title>G_5492</title>
<polygon fill="#ff0000" stroke="#ff0000" points="72.7821,-32.5282 69.7821,-29.0282 72.7821,-25.5282 75.7821,-29.0282 72.7821,-32.5282"/>
</g>
<!-- P_17657&#45;&gt;G_5492 -->
<g id="edge20" class="edge"><title>P_17657&#45;&gt;G_5492</title>
<path fill="none" stroke="black" d="M68.2849,-44.8237C69.3088,-41.2274 70.9256,-35.5487 71.9162,-32.0695"/>
</g>
<!-- P_24257 -->
<g id="node24" class="node"><title>P_24257</title>
<ellipse fill="#000000" stroke="#000000" cx="224.019" cy="-124.014" rx="3" ry="3.5"/>
</g>
<!-- G_3693 -->
<g id="node25" class="node"><title>G_3693</title>
<polygon fill="#00ff00" stroke="#00ff00" points="212.355,-142.679 209.355,-139.179 212.355,-135.679 215.355,-139.179 212.355,-142.679"/>
</g>
<!-- P_24257&#45;&gt;G_3693 -->
<g id="edge22" class="edge"><title>P_24257&#45;&gt;G_3693</title>
<path fill="none" stroke="black" d="M221.987,-126.656C219.689,-129.643 215.998,-134.442 213.916,-137.15"/>
</g>
<!-- G_6483 -->
<g id="node27" class="node"><title>G_6483</title>
<polygon fill="#00ff00" stroke="#00ff00" points="243.39,-139.475 240.39,-135.975 243.39,-132.475 246.39,-135.975 243.39,-139.475"/>
</g>
<!-- P_24257&#45;&gt;G_6483 -->
<g id="edge24" class="edge"><title>P_24257&#45;&gt;G_6483</title>
<path fill="none" stroke="black" d="M226.712,-125.677C230.538,-128.04 237.48,-132.326 241.082,-134.55"/>
</g>
<!-- G_2730 -->
<g id="node29" class="node"><title>G_2730</title>
<polygon fill="#ff0000" stroke="#ff0000" points="229.24,-149.147 226.24,-145.647 229.24,-142.147 232.24,-145.647 229.24,-149.147"/>
</g>
<!-- P_24257&#45;&gt;G_2730 -->
<g id="edge26" class="edge"><title>P_24257&#45;&gt;G_2730</title>
<path fill="none" stroke="black" d="M224.834,-127.394C225.867,-131.672 227.626,-138.958 228.579,-142.907"/>
</g>
<!-- G_5281 -->
<g id="node31" class="node"><title>G_5281</title>
<polygon fill="#ff0000" stroke="#ff0000" points="203.838,-100.194 200.838,-96.694 203.838,-93.194 206.838,-96.694 203.838,-100.194"/>
</g>
<!-- P_24257&#45;&gt;G_5281 -->
<g id="edge28" class="edge"><title>P_24257&#45;&gt;G_5281</title>
<path fill="none" stroke="black" d="M221.859,-121.091C217.71,-115.474 208.73,-103.317 205.253,-98.6096"/>
</g>
<!-- G_5395 -->
<g id="node33" class="node"><title>G_5395</title>
<polygon fill="#ff0000" stroke="#ff0000" points="242.715,-122.283 239.715,-118.783 242.715,-115.283 245.715,-118.783 242.715,-122.283"/>
</g>
<!-- P_24257&#45;&gt;G_5395 -->
<g id="edge30" class="edge"><title>P_24257&#45;&gt;G_5395</title>
<path fill="none" stroke="black" d="M226.94,-123.197C230.555,-122.185 236.656,-120.478 240.116,-119.51"/>
</g>
<!-- P_46182 -->
<g id="node35" class="node"><title>P_46182</title>
<ellipse fill="#000000" stroke="#000000" cx="21.4749" cy="-122.706" rx="3" ry="3.5"/>
</g>
<!-- G_6779 -->
<g id="node36" class="node"><title>G_6779</title>
<polygon fill="#00ff00" stroke="#00ff00" points="4.5,-135.141 1.5,-131.641 4.5,-128.141 7.5,-131.641 4.5,-135.141"/>
</g>
<!-- P_46182&#45;&gt;G_6779 -->
<g id="edge32" class="edge"><title>P_46182&#45;&gt;G_6779</title>
<path fill="none" stroke="black" d="M18.5181,-124.263C15.1745,-126.023 9.8026,-128.85 6.77169,-130.445"/>
</g>
<!-- G_4637 -->
<g id="node38" class="node"><title>G_4637</title>
<polygon fill="#ff0000" stroke="#ff0000" points="39.4893,-110.119 36.4893,-106.619 39.4893,-103.119 42.4893,-106.619 39.4893,-110.119"/>
</g>
<!-- P_46182&#45;&gt;G_4637 -->
<g id="edge34" class="edge"><title>P_46182&#45;&gt;G_4637</title>
<path fill="none" stroke="black" d="M23.9797,-120.469C27.6921,-117.154 34.5601,-111.021 37.762,-108.161"/>
</g>
<!-- P_49762 -->
<g id="node40" class="node"><title>P_49762</title>
<ellipse fill="#000000" stroke="#000000" cx="142.033" cy="-72.7046" rx="3" ry="3.5"/>
</g>
<!-- P_49762&#45;&gt;G_5274 -->
<g id="edge36" class="edge"><title>P_49762&#45;&gt;G_5274</title>
<path fill="none" stroke="black" d="M140.212,-75.7015C138.763,-78.0872 136.77,-81.3675 135.479,-83.4922"/>
</g>
<!-- P_49762&#45;&gt;G_7745 -->
<g id="edge38" class="edge"><title>P_49762&#45;&gt;G_7745</title>
<path fill="none" stroke="black" d="M141.591,-76.3724C141.228,-79.3868 140.717,-83.6257 140.362,-86.5723"/>
</g>
<!-- P_55272 -->
<g id="node43" class="node"><title>P_55272</title>
<ellipse fill="#000000" stroke="#000000" cx="21.0441" cy="-101.025" rx="3" ry="3.5"/>
</g>
<!-- P_55272&#45;&gt;G_4637 -->
<g id="edge40" class="edge"><title>P_55272&#45;&gt;G_4637</title>
<path fill="none" stroke="black" d="M24.257,-101.999C27.8902,-103.101 33.7274,-104.871 37.0209,-105.87"/>
</g>
<!-- P_63462 -->
<g id="node45" class="node"><title>P_63462</title>
<ellipse fill="#000000" stroke="#000000" cx="112.754" cy="-76.9353" rx="3" ry="3.5"/>
</g>
<!-- P_63462&#45;&gt;G_5274 -->
<g id="edge48" class="edge"><title>P_63462&#45;&gt;G_5274</title>
<path fill="none" stroke="black" d="M115.734,-78.1437C120.058,-79.8973 127.98,-83.1105 131.884,-84.6938"/>
</g>
<!-- P_63462&#45;&gt;G_7745 -->
<g id="edge50" class="edge"><title>P_63462&#45;&gt;G_7745</title>
<path fill="none" stroke="black" d="M115.665,-78.3334C121.145,-80.9664 132.885,-86.6058 137.758,-88.9471"/>
</g>
<!-- P_63462&#45;&gt;G_8446 -->
<g id="edge46" class="edge"><title>P_63462&#45;&gt;G_8446</title>
<path fill="none" stroke="black" d="M109.571,-76.5134C104.481,-75.8388 94.5844,-74.5272 89.686,-73.878"/>
</g>
<!-- G_2531 -->
<g id="node46" class="node"><title>G_2531</title>
<polygon fill="#00ff00" stroke="#00ff00" points="92.2195,-93.328 89.2195,-89.828 92.2195,-86.328 95.2195,-89.828 92.2195,-93.328"/>
</g>
<!-- P_63462&#45;&gt;G_2531 -->
<g id="edge42" class="edge"><title>P_63462&#45;&gt;G_2531</title>
<path fill="none" stroke="black" d="M109.899,-78.7279C105.667,-81.3849 97.8384,-86.3002 94.1885,-88.5918"/>
</g>
<!-- G_6607 -->
<g id="node48" class="node"><title>G_6607</title>
<polygon fill="#00ff00" stroke="#00ff00" points="110.304,-60.1245 107.304,-56.6245 110.304,-53.1245 113.304,-56.6245 110.304,-60.1245"/>
</g>
<!-- P_63462&#45;&gt;G_6607 -->
<g id="edge44" class="edge"><title>P_63462&#45;&gt;G_6607</title>
<path fill="none" stroke="black" d="M112.327,-73.3974C111.867,-69.5786 111.139,-63.5485 110.693,-59.854"/>
</g>
<!-- P_66482 -->
<g id="node53" class="node"><title>P_66482</title>
<ellipse fill="#000000" stroke="#000000" cx="111.872" cy="-88.3498" rx="3" ry="3.5"/>
</g>
<!-- P_66482&#45;&gt;G_5274 -->
<g id="edge56" class="edge"><title>P_66482&#45;&gt;G_5274</title>
<path fill="none" stroke="black" d="M114.974,-87.9711C119.284,-87.4448 127.029,-86.4992 131.248,-85.9841"/>
</g>
<!-- P_66482&#45;&gt;G_7745 -->
<g id="edge58" class="edge"><title>P_66482&#45;&gt;G_7745</title>
<path fill="none" stroke="black" d="M114.877,-88.5264C120.309,-88.8456 131.696,-89.5147 137.05,-89.8292"/>
</g>
<!-- P_66482&#45;&gt;G_8446 -->
<g id="edge54" class="edge"><title>P_66482&#45;&gt;G_8446</title>
<path fill="none" stroke="black" d="M109.189,-86.7601C104.135,-83.7662 93.3104,-77.3539 88.8166,-74.6918"/>
</g>
<!-- P_66482&#45;&gt;G_2531 -->
<g id="edge52" class="edge"><title>P_66482&#45;&gt;G_2531</title>
<path fill="none" stroke="black" d="M108.801,-88.5808C105.088,-88.8601 98.879,-89.3271 95.2043,-89.6035"/>
</g>
<!-- P_82442 -->
<g id="node58" class="node"><title>P_82442</title>
<ellipse fill="#000000" stroke="#000000" cx="131.756" cy="-109.779" rx="3" ry="3.5"/>
</g>
<!-- P_82442&#45;&gt;G_2668 -->
<g id="edge60" class="edge"><title>P_82442&#45;&gt;G_2668</title>
<path fill="none" stroke="black" d="M134.309,-112.128C136.954,-114.562 141.014,-118.299 143.293,-120.396"/>
</g>
<!-- P_82442&#45;&gt;G_5274 -->
<g id="edge64" class="edge"><title>P_82442&#45;&gt;G_5274</title>
<path fill="none" stroke="black" d="M132.135,-106.005C132.604,-101.335 133.396,-93.4537 133.845,-88.9842"/>
</g>
<!-- P_82442&#45;&gt;G_7745 -->
<g id="edge66" class="edge"><title>P_82442&#45;&gt;G_7745</title>
<path fill="none" stroke="black" d="M133.183,-106.333C134.797,-102.437 137.39,-96.1781 138.853,-92.6465"/>
</g>
<!-- G_2764 -->
<g id="node60" class="node"><title>G_2764</title>
<polygon fill="#ff0000" stroke="#ff0000" points="123.221,-133.803 120.221,-130.303 123.221,-126.803 126.221,-130.303 123.221,-133.803"/>
</g>
<!-- P_82442&#45;&gt;G_2764 -->
<g id="edge62" class="edge"><title>P_82442&#45;&gt;G_2764</title>
<path fill="none" stroke="black" d="M130.422,-112.985C128.772,-116.954 125.987,-123.651 124.408,-127.449"/>
</g>
<!-- P_89257 -->
<g id="node64" class="node"><title>P_89257</title>
<ellipse fill="#000000" stroke="#000000" cx="255.202" cy="-43.0986" rx="3" ry="3.5"/>
</g>
<!-- G_4654 -->
<g id="node65" class="node"><title>G_4654</title>
<polygon fill="#00ff00" stroke="#00ff00" points="246.438,-64.6795 243.438,-61.1795 246.438,-57.6795 249.438,-61.1795 246.438,-64.6795"/>
</g>
<!-- P_89257&#45;&gt;G_4654 -->
<g id="edge68" class="edge"><title>P_89257&#45;&gt;G_4654</title>
<path fill="none" stroke="black" d="M253.675,-46.248C251.949,-49.8095 249.176,-55.5314 247.611,-58.7598"/>
</g>
<!-- P_89652 -->
<g id="node67" class="node"><title>P_89652</title>
<ellipse fill="#000000" stroke="#000000" cx="222.501" cy="-77.8067" rx="3" ry="3.5"/>
</g>
<!-- P_89652&#45;&gt;G_5281 -->
<g id="edge76" class="edge"><title>P_89652&#45;&gt;G_5281</title>
<path fill="none" stroke="black" d="M220.212,-80.1226C216.475,-83.9052 209.133,-91.3353 205.696,-94.8139"/>
</g>
<!-- P_89652&#45;&gt;G_4654 -->
<g id="edge72" class="edge"><title>P_89652&#45;&gt;G_4654</title>
<path fill="none" stroke="black" d="M225.436,-75.7679C230.23,-72.4379 239.646,-65.8969 244.055,-62.8346"/>
</g>
<!-- G_4262 -->
<g id="node68" class="node"><title>G_4262</title>
<polygon fill="#00ff00" stroke="#00ff00" points="239.962,-86.5257 236.962,-83.0257 239.962,-79.5257 242.962,-83.0257 239.962,-86.5257"/>
</g>
<!-- P_89652&#45;&gt;G_4262 -->
<g id="edge70" class="edge"><title>P_89652&#45;&gt;G_4262</title>
<path fill="none" stroke="black" d="M225.542,-78.7158C228.825,-79.6971 234.009,-81.2466 237.185,-82.1959"/>
</g>
<!-- G_2599 -->
<g id="node71" class="node"><title>G_2599</title>
<polygon fill="#ff0000" stroke="#ff0000" points="197.947,-80.858 194.947,-77.358 197.947,-73.858 200.947,-77.358 197.947,-80.858"/>
</g>
<!-- P_89652&#45;&gt;G_2599 -->
<g id="edge74" class="edge"><title>P_89652&#45;&gt;G_2599</title>
<path fill="none" stroke="black" d="M219.49,-77.7517C214.777,-77.6656 205.71,-77.4999 200.982,-77.4135"/>
</g>
<!-- P_135027 -->
<g id="node74" class="node"><title>P_135027</title>
<ellipse fill="#000000" stroke="#000000" cx="170.425" cy="-79.6247" rx="3" ry="3.5"/>
</g>
<!-- P_135027&#45;&gt;G_5274 -->
<g id="edge82" class="edge"><title>P_135027&#45;&gt;G_5274</title>
<path fill="none" stroke="black" d="M167.081,-80.1786C159.931,-81.3624 143.285,-84.1186 136.818,-85.1895"/>
</g>
<!-- P_135027&#45;&gt;G_7745 -->
<g id="edge88" class="edge"><title>P_135027&#45;&gt;G_7745</title>
<path fill="none" stroke="black" d="M167.164,-80.735C161.022,-82.826 147.866,-87.3045 142.404,-89.1637"/>
</g>
<!-- P_135027&#45;&gt;G_7725 -->
<g id="edge86" class="edge"><title>P_135027&#45;&gt;G_7725</title>
<path fill="none" stroke="black" d="M170.919,-76.1155C171.812,-69.7709 173.683,-56.4718 174.563,-50.2188"/>
</g>
<!-- P_135027&#45;&gt;G_5281 -->
<g id="edge84" class="edge"><title>P_135027&#45;&gt;G_5281</title>
<path fill="none" stroke="black" d="M173.509,-81.2C180.229,-84.6333 196.051,-92.7159 201.748,-95.6262"/>
</g>
<!-- P_135027&#45;&gt;G_2599 -->
<g id="edge80" class="edge"><title>P_135027&#45;&gt;G_2599</title>
<path fill="none" stroke="black" d="M173.8,-79.3468C179.197,-78.9023 189.69,-78.0381 194.883,-77.6103"/>
</g>
<!-- G_3253 -->
<g id="node75" class="node"><title>G_3253</title>
<polygon fill="#00ff00" stroke="#00ff00" points="179.971,-70.6858 176.971,-67.1858 179.971,-63.6858 182.971,-67.1858 179.971,-70.6858"/>
</g>
<!-- P_135027&#45;&gt;G_3253 -->
<g id="edge78" class="edge"><title>P_135027&#45;&gt;G_3253</title>
<path fill="none" stroke="black" d="M172.639,-76.7397C174.402,-74.4431 176.825,-71.2853 178.395,-69.2399"/>
</g>
<!-- P_140282 -->
<g id="node82" class="node"><title>P_140282</title>
<ellipse fill="#000000" stroke="#000000" cx="66.5873" cy="-91.7148" rx="3" ry="3.5"/>
</g>
<!-- P_140282&#45;&gt;G_8446 -->
<g id="edge94" class="edge"><title>P_140282&#45;&gt;G_8446</title>
<path fill="none" stroke="black" d="M69.0653,-89.4807C73.1126,-85.8318 81.0627,-78.6643 84.7848,-75.3086"/>
</g>
<!-- P_140282&#45;&gt;G_4637 -->
<g id="edge96" class="edge"><title>P_140282&#45;&gt;G_4637</title>
<path fill="none" stroke="black" d="M63.6873,-93.3098C58.226,-96.3135 46.5287,-102.747 41.6725,-105.418"/>
</g>
<!-- P_140282&#45;&gt;G_2531 -->
<g id="edge90" class="edge"><title>P_140282&#45;&gt;G_2531</title>
<path fill="none" stroke="black" d="M69.7303,-91.4834C74.7568,-91.1134 84.5292,-90.3941 89.3662,-90.038"/>
</g>
<!-- G_5496 -->
<g id="node84" class="node"><title>G_5496</title>
<polygon fill="#00ff00" stroke="#00ff00" points="49.9183,-90.3496 46.9183,-86.8496 49.9183,-83.3496 52.9183,-86.8496 49.9183,-90.3496"/>
</g>
<!-- P_140282&#45;&gt;G_5496 -->
<g id="edge92" class="edge"><title>P_140282&#45;&gt;G_5496</title>
<path fill="none" stroke="black" d="M63.3733,-90.7767C60.1946,-89.8489 55.3933,-88.4476 52.4681,-87.5938"/>
</g>
<!-- P_498357 -->
<g id="node88" class="node"><title>P_498357</title>
<ellipse fill="#000000" stroke="#000000" cx="266.987" cy="-60.3397" rx="3" ry="3.5"/>
</g>
<!-- P_498357&#45;&gt;G_4654 -->
<g id="edge98" class="edge"><title>P_498357&#45;&gt;G_4654</title>
<path fill="none" stroke="black" d="M263.776,-60.4709C259.893,-60.6296 253.401,-60.8949 249.559,-61.0519"/>
</g>
</g>
</svg>
